<?xml version="1.0" encoding="UTF-8" ?><!DOCTYPE svg PUBLIC "-//W3C//DTD SVG 1.1//EN" "http://www.w3.org/Graphics/SVG/1.1/DTD/svg11.dtd"><svg width="512pt" height="512pt" viewBox="0 0 512 512" version="1.1" xmlns="http://www.w3.org/2000/svg"><g id="#ffffffff"><path fill="#ffffff" opacity="1.00" d=" M 46.16 13.27 C 52.33 6.35 61.83 3.23 70.93 3.25 C 205.62 3.26 340.32 3.25 475.02 3.25 C 480.70 3.29 486.60 2.73 492.00 4.93 C 502.44 8.68 511.28 18.51 511.43 29.96 C 510.69 48.59 512.37 67.22 511.04 85.85 L 512.00 73.23 L 512.00 259.48 C 510.62 274.18 512.07 288.92 511.25 303.64 C 511.32 350.11 510.64 396.57 510.75 443.04 C 510.73 452.32 507.42 462.06 500.13 468.14 C 487.84 478.10 468.48 477.85 456.46 467.57 C 450.49 462.13 447.18 454.10 446.76 446.12 C 446.72 335.70 446.77 225.28 446.74 114.87 C 429.65 132.08 412.12 148.86 395.05 166.09 C 382.05 178.40 369.80 191.47 356.82 203.79 C 350.57 210.24 343.95 216.31 337.66 222.71 C 290.97 267.65 245.56 313.91 198.97 358.95 C 149.84 406.84 101.65 455.69 52.03 503.08 C 41.95 512.25 25.82 511.33 15.01 503.93 C 9.05 500.15 4.95 494.05 2.49 487.55 C -0.92 477.41 1.49 465.51 8.65 457.55 C 20.20 445.81 32.15 434.46 43.68 422.69 C 58.17 408.82 72.01 394.29 86.44 380.35 C 106.25 360.86 125.62 340.90 145.58 321.56 C 161.11 306.12 176.43 290.46 192.16 275.23 C 235.45 231.84 279.55 189.28 322.79 145.83 C 341.10 127.45 359.69 109.37 377.94 90.93 C 386.26 83.29 393.81 74.85 402.18 67.27 C 291.13 67.24 180.07 67.25 69.02 67.26 C 60.62 67.12 52.13 63.73 46.40 57.51 C 35.94 45.31 35.91 25.60 46.16 13.27 Z" /></g></svg>