<?xml version="1.0" encoding="UTF-8" ?><!DOCTYPE svg PUBLIC "-//W3C//DTD SVG 1.1//EN" "http://www.w3.org/Graphics/SVG/1.1/DTD/svg11.dtd"><svg width="512pt" height="512pt" viewBox="0 0 512 512" version="1.1" xmlns="http://www.w3.org/2000/svg"><g id="#2b2847ff"><path fill="#2b2847" opacity="1.00" d=" M 18.12 0.00 L 30.46 0.00 C 73.59 1.73 117.36 10.36 155.40 31.49 C 182.41 46.72 206.60 69.05 219.18 97.82 C 229.49 121.15 229.24 148.35 220.05 172.00 C 232.72 183.74 245.16 195.74 257.17 208.17 C 268.10 195.76 279.64 183.91 291.50 172.38 C 283.94 153.92 281.68 133.10 286.74 113.69 C 293.07 88.67 309.55 67.44 328.80 50.80 C 356.50 27.15 391.45 13.59 426.81 6.36 C 444.27 2.82 462.00 0.90 479.78 0.00 L 493.53 0.00 C 503.11 0.83 511.27 8.88 512.00 18.51 L 512.00 31.18 C 510.81 58.50 506.91 85.81 498.84 111.97 C 489.11 143.81 472.77 174.31 448.01 196.97 C 438.35 205.94 427.74 214.18 415.59 219.46 C 407.68 222.92 397.75 220.31 392.45 213.54 C 386.72 206.70 386.54 196.03 392.00 188.99 C 395.87 183.47 402.81 181.91 408.02 178.08 C 424.23 166.64 437.53 151.22 446.79 133.70 C 462.04 105.11 468.86 72.77 471.32 40.68 C 437.10 43.31 402.44 50.88 372.61 68.47 C 357.64 77.27 344.39 89.21 334.64 103.63 C 326.97 114.96 322.46 128.85 324.44 142.60 C 344.91 125.51 365.99 109.14 388.02 94.11 C 392.67 91.06 397.11 87.08 402.82 86.30 C 410.21 85.02 418.13 88.36 422.37 94.54 C 426.87 100.80 427.20 109.70 423.18 116.27 C 421.05 120.06 417.39 122.56 413.88 124.94 C 384.61 144.81 356.74 166.76 330.64 190.66 C 310.35 209.37 290.94 229.14 273.80 250.81 C 266.48 259.96 251.07 260.47 243.14 251.87 C 229.55 236.86 215.28 222.47 200.52 208.61 C 189.92 216.52 177.32 221.29 164.53 224.28 C 151.45 227.19 137.90 229.05 124.53 227.25 C 102.08 224.49 81.60 212.93 65.05 197.88 C 41.44 176.78 25.32 148.45 15.30 118.66 C 5.72 90.27 1.14 60.37 0.00 30.49 L 0.00 18.71 C 0.61 9.12 8.63 1.05 18.12 0.00 M 40.67 40.68 C 43.09 72.53 49.85 104.59 64.82 133.03 C 73.82 150.18 86.55 165.52 102.46 176.65 C 113.09 184.02 125.95 188.80 139.02 187.89 C 149.48 187.09 159.90 184.84 169.58 180.74 C 145.66 160.33 120.94 140.83 95.12 122.86 C 90.15 119.56 86.66 114.08 86.10 108.11 C 85.11 100.03 89.73 91.69 97.04 88.15 C 103.20 85.02 110.99 85.40 116.76 89.22 C 140.81 105.96 164.05 123.86 186.57 142.61 C 188.13 130.27 185.49 117.53 179.14 106.84 C 170.19 91.66 156.86 79.38 142.04 70.04 C 111.65 51.32 75.90 43.39 40.67 40.68 Z" /><path fill="#2b2847" opacity="1.00" d=" M 240.03 318.94 C 239.82 309.40 247.44 300.54 256.88 299.26 C 266.05 297.61 275.76 303.38 278.79 312.17 C 280.32 316.27 279.97 320.73 280.01 325.03 C 279.96 380.72 280.05 436.40 279.97 492.09 C 280.18 502.24 271.59 511.27 261.54 512.00 L 258.14 512.00 C 248.20 511.06 239.79 502.11 240.02 492.04 C 239.98 434.34 239.98 376.64 240.03 318.94 Z" /><path fill="#2b2847" opacity="1.00" d=" M 51.82 311.69 C 54.92 304.70 62.32 299.93 69.98 300.02 C 82.64 299.95 95.30 300.03 107.96 300.00 C 119.82 300.12 132.08 299.04 143.42 303.28 C 163.27 309.88 178.99 327.25 183.63 347.64 C 187.34 363.38 184.34 380.41 175.91 394.15 C 191.68 404.91 202.42 422.84 203.77 441.95 C 205.47 461.57 197.54 481.68 182.99 494.93 C 172.27 505.07 157.91 510.95 143.25 512.00 L 68.16 512.00 C 60.10 511.13 52.79 505.24 50.73 497.32 C 49.47 491.97 50.17 486.41 50.01 480.97 C 50.00 429.65 50.02 378.33 50.00 327.01 C 50.05 321.88 49.51 316.45 51.82 311.69 M 90.00 340.00 C 90.00 354.33 90.00 368.67 90.00 383.00 C 101.37 382.96 112.74 383.07 124.11 382.95 C 131.73 382.89 139.07 378.39 142.62 371.66 C 146.20 365.25 146.02 357.00 142.29 350.71 C 138.60 344.27 131.40 340.01 123.97 340.02 C 112.65 339.96 101.32 340.02 90.00 340.00 M 90.00 423.00 C 90.00 439.33 90.00 455.66 90.00 472.00 C 106.66 471.98 123.33 472.05 139.99 471.97 C 152.30 471.93 163.07 461.18 163.89 449.03 C 164.91 439.13 158.83 429.16 149.76 425.22 C 146.09 423.50 142.01 422.93 137.99 422.99 C 121.99 423.01 106.00 422.99 90.00 423.00 Z" /><path fill="#2b2847" opacity="1.00" d=" M 359.69 307.67 C 375.98 299.38 395.50 297.75 412.97 303.13 C 428.09 307.71 441.56 317.47 450.68 330.36 C 459.31 342.40 464.00 357.17 463.98 371.98 C 463.98 394.98 464.02 417.99 463.96 440.99 C 463.82 461.20 454.53 481.06 439.24 494.25 C 427.17 504.89 411.46 511.07 395.43 512.00 L 388.66 512.00 C 374.00 511.15 359.56 506.01 347.99 496.91 C 330.83 483.78 320.13 462.62 320.02 440.98 C 319.96 421.68 320.01 402.37 320.00 383.06 C 320.03 374.68 319.62 366.20 321.38 357.95 C 325.51 336.47 340.14 317.42 359.69 307.67 M 385.51 340.67 C 371.43 343.37 360.25 356.53 360.05 370.90 C 359.95 394.27 359.96 417.64 360.04 441.01 C 360.22 455.24 371.17 468.36 385.09 471.21 C 398.69 474.49 413.81 467.45 420.19 455.03 C 423.62 448.97 424.26 441.86 424.00 435.02 C 423.98 414.35 424.00 393.68 423.99 373.00 C 424.06 367.44 422.86 361.83 420.19 356.93 C 413.85 344.65 399.01 337.66 385.51 340.67 Z" /></g></svg>