<?xml version="1.0" encoding="UTF-8" ?><!DOCTYPE svg PUBLIC "-//W3C//DTD SVG 1.1//EN" "http://www.w3.org/Graphics/SVG/1.1/DTD/svg11.dtd"><svg width="512pt" height="512pt" viewBox="0 0 512 512" version="1.1" xmlns="http://www.w3.org/2000/svg"><g id="#2b2847ff"><path fill="#2b2847" opacity="1.00" d=" M 298.42 0.00 L 304.53 0.00 C 319.37 7.69 333.50 16.71 348.03 24.96 C 352.48 27.69 357.77 29.83 360.40 34.63 C 363.39 39.42 363.44 45.77 360.57 50.63 C 353.14 63.81 345.57 76.91 338.09 90.06 C 337.28 91.25 336.83 92.80 338.16 93.83 C 342.68 98.89 345.99 105.15 346.85 111.94 C 347.56 116.82 346.65 121.71 346.16 126.57 C 373.45 131.45 398.77 146.13 416.88 167.08 C 435.35 188.27 446.27 215.92 447.16 244.03 C 448.18 271.99 439.40 300.20 422.55 322.56 C 400.82 351.97 365.52 370.80 328.95 372.20 C 316.03 372.48 303.09 372.30 290.17 372.28 C 289.84 383.50 290.06 394.73 290.05 405.96 C 352.71 406.06 415.37 405.95 478.03 406.01 C 487.87 405.97 497.66 410.44 503.95 418.04 C 508.50 423.19 510.82 429.84 512.00 436.52 L 512.00 481.45 C 510.65 490.76 505.98 499.73 498.24 505.28 C 493.40 509.06 487.44 510.94 481.46 512.00 L 30.54 512.00 C 22.67 510.77 14.96 507.45 9.48 501.53 C 4.09 496.17 1.24 488.86 0.00 481.48 L 0.00 436.52 C 1.13 430.32 3.12 424.09 7.16 419.14 C 13.25 411.25 22.95 406.23 32.94 406.05 C 71.19 405.83 109.45 406.25 147.70 405.84 C 147.58 394.67 147.65 383.50 147.66 372.33 C 136.77 372.29 125.88 372.38 115.00 372.33 C 104.31 373.07 95.49 361.39 99.27 351.31 C 101.29 344.70 108.05 340.03 114.94 340.32 C 179.29 340.35 243.64 340.33 308.00 340.33 C 318.55 340.24 329.21 340.89 339.63 338.80 C 368.78 333.89 394.63 313.60 406.77 286.72 C 415.80 267.32 417.58 244.72 411.92 224.11 C 405.95 202.20 391.59 182.74 372.39 170.61 C 359.94 162.84 345.65 157.70 330.96 156.75 C 329.33 156.36 328.60 157.86 327.93 159.00 C 308.89 192.59 289.64 226.06 270.60 259.64 C 267.64 265.07 264.22 270.47 259.12 274.13 C 250.92 280.36 239.72 282.18 229.91 279.13 C 221.35 276.03 214.00 270.45 206.02 266.19 C 201.09 272.78 199.07 282.34 190.89 285.88 C 181.95 290.22 170.09 283.89 168.83 274.01 C 167.12 264.80 174.75 257.88 178.08 250.03 C 169.29 243.76 158.29 240.28 151.45 231.55 C 143.85 222.12 142.31 208.36 147.42 197.41 C 149.28 193.40 151.67 189.66 153.82 185.81 C 176.48 146.12 199.10 106.40 221.73 66.70 C 225.56 59.22 231.57 52.58 239.54 49.51 C 247.22 46.16 255.82 46.77 263.72 48.93 C 271.58 35.35 279.26 21.66 287.08 8.05 C 289.40 3.76 293.82 1.19 298.42 0.00 M 306.99 38.10 C 302.14 45.66 298.06 53.70 293.44 61.40 C 292.83 62.76 290.87 64.95 293.03 65.91 C 298.35 69.02 303.63 72.22 309.06 75.15 L 309.78 74.89 C 314.95 66.34 319.80 57.57 324.71 48.84 C 319.18 44.72 312.91 41.64 306.99 38.10 M 251.40 79.17 C 226.49 123.21 201.20 167.05 176.33 211.11 C 177.55 212.46 179.08 213.45 180.66 214.33 C 200.44 225.69 220.00 237.43 239.79 248.76 C 242.07 245.30 244.00 241.63 246.08 238.04 C 267.45 200.45 288.92 162.91 310.34 125.33 C 312.04 122.31 314.01 119.41 315.18 116.13 C 295.59 104.15 275.53 92.94 255.82 81.16 C 254.44 80.29 252.97 79.60 251.40 79.17 M 180.01 372.27 C 179.32 375.81 179.71 379.42 179.64 383.00 C 179.73 390.65 179.46 398.31 179.77 405.97 C 205.84 406.02 231.91 406.02 257.98 405.97 C 257.96 394.74 258.23 383.49 257.84 372.26 C 231.90 372.38 205.95 372.37 180.01 372.27 M 33.20 438.13 C 31.38 439.06 32.19 441.34 31.97 442.97 C 32.13 454.91 31.79 466.86 32.13 478.80 C 32.40 479.07 32.94 479.60 33.20 479.87 C 71.79 480.18 110.40 479.91 149.00 480.00 C 258.35 480.00 367.69 480.00 477.04 480.00 C 478.33 480.21 480.14 479.56 479.95 477.95 C 479.98 465.04 480.15 452.11 479.87 439.21 C 479.60 438.94 479.06 438.40 478.80 438.13 C 444.87 437.82 410.93 438.10 377.00 438.00 C 262.40 438.09 147.79 437.82 33.20 438.13 Z" /></g></svg>