<?xml version="1.0" encoding="UTF-8" ?><!DOCTYPE svg PUBLIC "-//W3C//DTD SVG 1.1//EN" "http://www.w3.org/Graphics/SVG/1.1/DTD/svg11.dtd"><svg width="512pt" height="512pt" viewBox="0 0 512 512" version="1.1" xmlns="http://www.w3.org/2000/svg"><g id="#2b2847ff"><path fill="#2b2847" opacity="1.00" d=" M 239.64 0.00 L 245.34 0.00 C 245.32 2.03 245.30 4.06 245.27 6.09 C 244.65 6.27 243.41 6.64 242.79 6.83 C 245.19 9.28 248.10 11.45 249.41 14.73 C 250.48 16.77 251.03 19.50 253.42 20.40 C 256.84 21.86 260.72 21.31 264.19 22.62 C 269.29 24.49 274.49 26.44 280.00 26.60 C 286.58 27.21 293.97 26.07 299.45 30.62 C 299.43 32.40 299.42 34.18 299.41 35.96 C 296.21 38.21 292.81 40.16 289.44 42.14 C 289.36 42.75 289.19 43.98 289.10 44.60 C 290.82 44.60 292.55 44.61 294.28 44.61 C 295.28 45.51 296.29 46.40 297.30 47.30 C 297.33 48.97 297.36 50.64 297.39 52.32 C 295.93 53.86 294.46 55.40 292.99 56.93 C 294.18 57.20 295.37 57.47 296.58 57.74 C 296.33 60.74 295.73 63.68 295.14 66.63 C 299.92 69.75 305.21 73.19 306.80 79.06 C 305.32 80.76 303.35 82.45 300.96 82.38 C 298.95 82.08 297.16 81.05 295.31 80.27 C 295.61 79.54 296.22 78.08 296.52 77.34 C 295.32 75.39 294.13 73.44 292.91 71.50 C 292.00 73.18 291.10 74.86 290.25 76.57 C 288.60 76.83 286.72 77.90 285.17 76.79 C 282.60 75.18 280.09 73.46 277.29 72.26 C 277.38 73.99 277.49 75.72 277.61 77.45 C 274.62 80.87 269.59 79.67 266.05 82.11 C 260.91 85.36 255.73 88.93 249.52 89.71 C 249.16 88.92 248.44 87.34 248.08 86.55 C 245.31 89.82 242.36 95.33 246.02 99.01 C 249.94 103.25 253.85 107.51 257.63 111.89 C 256.92 115.15 255.76 118.30 254.22 121.27 C 251.88 121.63 249.55 122.05 247.21 122.44 C 246.34 131.64 247.62 141.53 252.70 149.44 C 258.61 157.99 268.19 162.60 276.61 168.22 C 280.09 170.35 281.66 174.52 285.13 176.63 C 288.27 177.97 291.77 178.06 295.07 178.82 C 295.18 183.58 298.17 187.48 299.42 191.93 C 300.32 195.10 301.79 198.07 302.84 201.20 C 305.00 208.53 305.46 216.37 308.75 223.35 C 310.83 227.91 313.80 232.03 317.40 235.51 C 322.65 240.73 327.87 246.17 334.32 249.94 C 335.16 251.85 335.48 254.37 337.77 255.12 C 343.33 257.82 348.65 261.57 354.97 262.20 C 358.99 262.62 363.04 262.29 367.06 261.97 C 373.21 261.42 379.40 261.73 385.57 261.53 C 387.84 264.89 387.98 268.96 387.49 272.86 C 384.99 274.96 382.25 276.75 379.71 278.81 C 377.42 280.28 377.80 284.45 380.58 285.16 C 387.82 288.10 394.84 291.54 401.75 295.19 C 410.04 299.88 420.00 301.28 427.46 307.50 C 430.40 309.84 432.00 313.69 435.56 315.24 C 441.89 318.05 448.68 320.09 454.19 324.43 C 454.29 328.52 457.72 331.04 460.57 333.40 C 465.35 337.07 470.22 341.67 471.36 347.84 C 471.47 355.01 467.83 361.57 465.12 368.03 C 459.84 366.82 453.60 365.24 450.64 360.26 C 448.70 354.76 447.98 348.84 445.15 343.65 C 440.74 343.30 436.30 343.67 431.90 343.30 C 428.13 342.58 424.82 340.52 421.61 338.54 C 421.56 336.80 421.50 335.08 421.43 333.36 C 419.16 333.87 416.58 334.06 414.87 335.82 C 411.38 338.74 410.11 343.24 408.00 347.09 C 406.46 349.94 403.39 351.88 402.79 355.22 C 401.98 359.81 400.14 364.12 399.01 368.63 C 406.53 373.85 416.71 375.13 422.59 382.59 C 420.88 390.93 422.65 399.29 422.33 407.68 C 421.81 408.14 420.79 409.06 420.27 409.51 C 416.58 408.84 412.58 407.46 408.95 409.11 C 405.80 410.48 402.25 412.54 401.42 416.13 C 401.20 421.56 402.27 427.00 401.48 432.43 C 397.98 434.85 393.51 436.27 391.24 440.10 C 388.33 444.74 385.63 449.51 383.07 454.34 C 378.33 454.31 373.58 454.31 368.83 454.32 C 367.44 453.56 366.04 452.81 364.65 452.08 C 364.62 448.22 364.55 444.36 364.74 440.51 C 364.26 442.95 363.76 445.41 362.70 447.68 C 360.33 452.99 355.07 456.50 353.38 462.18 C 352.05 466.41 349.97 470.47 349.33 474.89 C 349.46 480.66 351.69 486.60 356.24 490.34 C 356.29 491.65 356.33 492.97 356.38 494.30 C 353.92 497.14 350.93 499.79 349.62 503.40 C 349.54 506.27 349.89 509.13 349.82 512.00 L 344.71 512.00 C 342.92 511.13 341.35 509.37 339.22 509.51 C 335.75 509.51 331.99 510.18 328.82 508.40 C 325.61 506.66 322.85 504.14 320.57 501.30 C 318.67 498.91 317.99 495.45 315.08 493.98 C 309.93 490.95 303.43 492.84 298.22 489.95 C 294.17 488.15 291.77 483.99 287.57 482.46 C 284.18 481.11 281.50 478.61 278.88 476.15 C 275.92 473.27 271.56 472.86 268.21 470.59 C 264.32 470.38 260.41 470.40 256.51 470.44 C 253.87 467.85 250.86 465.02 250.40 461.14 C 249.97 456.77 250.32 452.20 252.10 448.15 C 254.04 443.93 258.20 440.13 263.15 440.69 C 265.44 442.30 267.35 444.64 270.30 445.07 C 271.40 442.79 272.19 439.99 274.63 438.78 C 277.80 437.20 281.44 437.71 284.85 437.68 C 285.99 439.60 286.68 442.03 288.70 443.26 C 292.08 445.40 296.04 446.37 299.90 447.26 C 305.15 446.05 310.57 445.04 315.96 445.99 C 325.33 447.50 332.63 438.39 341.97 439.53 C 344.24 439.61 346.61 440.56 348.82 439.63 C 353.51 437.94 357.52 434.79 362.22 433.16 C 364.83 432.71 367.31 434.14 369.78 434.81 C 371.49 431.73 374.68 428.41 373.11 424.65 C 372.25 422.00 371.58 419.09 372.73 416.42 C 375.94 413.74 380.39 413.55 384.28 412.49 C 384.65 411.87 385.37 410.62 385.74 410.00 C 384.02 406.41 381.66 403.17 379.91 399.61 C 378.50 394.67 379.73 389.16 377.30 384.45 C 374.51 378.75 370.40 373.52 369.64 367.02 C 369.05 362.16 367.52 357.30 363.64 354.05 C 362.20 355.51 360.75 356.97 359.30 358.43 C 358.37 358.41 356.51 358.37 355.58 358.35 C 353.19 356.09 350.98 353.63 348.42 351.55 C 345.78 349.43 341.91 349.16 339.72 346.49 C 338.51 343.07 339.89 339.43 339.57 335.92 C 338.52 332.49 336.62 329.41 335.12 326.17 C 329.90 327.03 324.91 329.32 319.50 328.74 C 319.52 327.39 319.55 326.05 319.58 324.71 C 320.51 323.73 321.43 322.75 322.35 321.77 C 318.15 318.83 312.97 318.29 307.99 318.38 C 304.82 311.40 301.89 304.13 296.84 298.25 C 292.13 299.01 287.48 298.13 283.02 296.64 C 280.71 295.57 278.73 297.17 277.05 298.55 C 275.45 298.38 273.72 298.69 272.23 298.04 C 269.50 295.99 268.18 292.62 265.52 290.51 C 262.66 288.74 259.18 288.40 256.24 286.82 C 254.34 285.35 253.07 283.26 251.48 281.51 C 248.74 278.23 245.36 275.54 242.68 272.21 C 240.87 269.94 239.97 267.07 238.03 264.91 C 234.81 262.19 230.43 261.38 227.14 258.78 C 224.40 255.62 223.72 251.21 221.13 247.95 C 218.06 244.59 213.65 242.96 209.43 241.57 C 207.79 243.04 205.35 244.83 203.22 243.14 C 201.29 242.03 201.62 239.61 201.17 237.76 C 201.89 237.37 203.33 236.60 204.05 236.21 C 203.01 232.04 199.59 229.22 196.65 226.36 C 195.37 225.07 193.57 224.61 191.91 224.06 C 190.32 221.71 189.42 219.00 188.18 216.48 C 186.08 214.91 182.99 214.61 181.54 212.27 C 179.69 209.41 181.61 206.03 181.45 202.94 C 180.11 195.88 172.63 191.47 172.58 184.00 C 171.93 177.46 171.57 170.54 168.17 164.73 C 165.51 160.38 159.83 160.20 155.49 158.61 C 151.31 157.62 149.22 153.44 145.59 151.50 C 139.67 148.08 133.49 145.03 126.99 142.87 C 124.15 142.04 120.98 140.80 118.10 142.20 C 113.64 143.80 111.71 148.49 108.94 151.94 C 107.34 154.34 104.47 155.33 102.57 157.40 C 101.34 159.37 100.73 161.65 100.07 163.87 C 95.84 168.61 90.01 171.58 84.05 173.55 C 80.63 174.91 77.02 173.69 73.57 173.17 C 73.24 170.21 72.57 167.06 73.65 164.19 C 75.08 161.50 77.21 159.26 78.98 156.81 C 73.58 155.05 67.62 156.43 62.35 154.06 C 54.66 151.20 48.76 143.50 49.37 135.10 C 48.89 129.20 54.56 125.38 54.97 119.69 C 52.49 119.14 50.00 118.62 47.49 118.24 C 43.10 114.32 40.33 108.69 40.43 102.75 C 45.55 98.52 52.63 99.28 58.29 96.15 C 58.84 94.11 60.39 91.81 59.19 89.73 C 57.42 87.11 54.85 85.10 53.38 82.26 C 51.40 78.42 46.80 75.81 47.07 71.00 C 46.38 65.53 53.09 64.32 55.61 60.51 C 59.64 60.88 63.85 62.12 67.78 60.52 C 72.53 58.90 78.08 56.98 82.86 59.47 C 83.42 59.55 84.53 59.70 85.08 59.77 C 88.71 56.49 92.36 53.04 94.43 48.52 C 96.36 44.20 99.20 40.13 99.79 35.33 C 102.93 33.27 106.61 32.42 110.34 32.51 C 110.87 36.16 110.72 39.89 109.60 43.42 C 111.61 45.78 113.55 48.26 116.03 50.15 C 118.34 51.44 121.14 51.35 123.51 52.49 C 124.78 53.91 124.42 56.04 124.86 57.79 C 125.18 57.74 125.80 57.64 126.11 57.59 C 127.76 53.41 130.30 49.69 133.20 46.28 C 137.08 42.01 135.68 35.84 136.70 30.62 C 139.62 30.54 142.54 30.50 145.46 30.46 C 146.51 33.71 146.82 37.32 148.76 40.21 C 149.62 40.48 150.49 40.71 151.38 40.90 C 154.45 37.49 158.93 36.32 163.38 36.15 C 163.14 31.34 164.48 26.46 168.58 23.57 C 170.38 23.60 172.17 23.61 173.97 23.65 C 175.36 25.52 176.92 27.28 178.79 28.69 C 177.98 23.04 176.86 17.24 178.87 11.68 C 182.37 11.45 185.94 10.93 189.43 11.56 C 192.69 12.72 195.36 15.07 198.25 16.91 C 201.55 14.14 201.32 9.21 204.08 6.19 C 211.98 3.39 220.60 4.18 228.83 3.45 C 232.43 2.31 235.83 0.46 239.64 0.00 M 164.19 37.29 C 164.75 37.78 164.75 37.78 164.19 37.29 Z" /><path fill="#2b2847" opacity="1.00" d=" M 173.51 218.38 C 175.06 217.59 176.40 216.45 177.91 215.59 C 179.55 215.05 180.38 216.89 181.55 217.62 C 181.45 220.23 181.44 222.85 181.45 225.47 C 180.26 226.22 179.06 226.96 177.87 227.71 C 176.89 226.68 175.92 225.65 174.95 224.63 C 172.62 225.74 170.12 226.44 167.55 226.64 C 166.66 224.09 166.53 221.40 166.67 218.73 C 168.94 218.65 171.27 218.89 173.51 218.38 Z" /><path fill="#2b2847" opacity="1.00" d=" M 135.11 294.17 C 139.49 293.34 143.12 296.40 146.90 298.03 C 150.22 299.41 151.68 302.99 152.97 306.08 C 153.93 308.28 152.11 310.66 153.05 312.86 C 154.18 316.26 155.69 319.52 157.07 322.83 C 157.38 323.86 157.71 324.90 158.05 325.93 C 159.19 328.92 159.47 332.10 159.40 335.27 C 157.08 338.73 153.33 341.34 152.14 345.46 C 153.00 346.70 154.05 347.86 154.60 349.29 C 155.11 357.67 154.40 366.06 154.33 374.44 C 154.07 374.80 153.55 375.53 153.29 375.89 C 153.29 379.02 153.51 382.15 153.23 385.27 C 152.53 387.26 151.25 388.98 150.52 390.95 C 149.86 393.71 149.72 396.56 149.27 399.36 C 146.55 399.54 143.47 400.00 141.38 397.83 C 138.40 394.97 134.43 393.70 130.43 393.16 C 130.36 396.81 130.37 400.47 130.35 404.12 C 129.04 405.87 127.82 407.69 126.60 409.51 C 122.03 409.84 117.44 409.81 112.87 409.60 C 111.98 407.71 111.03 405.86 110.09 404.01 C 109.86 404.86 109.63 405.71 109.41 406.57 C 107.84 406.57 106.28 406.50 104.73 406.38 C 102.20 403.21 102.26 398.78 104.24 395.36 C 103.00 394.09 102.48 392.46 102.44 390.71 C 103.15 390.04 103.85 389.38 104.55 388.72 C 104.11 381.37 105.65 374.12 106.30 366.84 C 106.31 364.79 108.98 364.58 110.13 363.39 C 108.41 362.50 106.45 362.41 104.56 362.26 C 104.62 360.07 104.67 357.89 104.73 355.71 C 106.33 351.20 107.65 346.24 106.43 341.48 C 104.61 337.44 102.48 333.54 100.51 329.56 C 98.89 329.11 97.29 328.61 95.69 328.10 C 95.42 322.30 95.52 316.40 97.79 310.95 C 98.37 310.53 99.53 309.69 100.11 309.26 C 101.63 310.68 103.13 312.13 104.59 313.61 C 106.96 313.66 109.33 313.68 111.70 313.70 C 112.35 313.06 113.01 312.42 113.67 311.79 C 115.92 311.13 118.42 310.82 120.27 309.27 C 122.51 307.22 122.99 304.05 124.58 301.58 C 125.88 299.65 128.65 299.87 130.15 298.17 C 131.77 296.83 132.82 294.43 135.11 294.17 Z" /></g></svg>