<?xml version="1.0" encoding="UTF-8" ?><!DOCTYPE svg PUBLIC "-//W3C//DTD SVG 1.1//EN" "http://www.w3.org/Graphics/SVG/1.1/DTD/svg11.dtd"><svg width="512pt" height="512pt" viewBox="0 0 512 512" version="1.1" xmlns="http://www.w3.org/2000/svg"><g id="#ffffffff"><path fill="#ffffff" opacity="1.00" d=" M 270.58 24.62 C 279.16 21.39 289.80 22.98 296.31 29.68 C 365.98 99.36 435.66 169.02 505.32 238.70 C 508.83 242.14 510.57 246.85 512.00 251.45 L 512.00 258.50 C 511.16 263.89 508.81 269.03 504.82 272.81 C 435.48 342.15 366.15 411.48 296.82 480.82 C 288.00 490.39 270.98 490.45 262.22 480.79 C 253.65 471.98 254.04 456.34 262.80 447.81 C 290.33 420.33 317.80 392.81 345.32 365.31 C 374.18 336.31 403.39 307.62 431.88 278.26 C 420.60 278.23 409.31 278.52 398.03 278.10 C 377.03 277.60 356.03 278.65 335.03 278.23 C 327.35 277.83 319.67 278.05 311.99 278.00 C 214.98 278.00 117.96 277.99 20.95 278.01 C 14.31 277.83 7.58 274.82 3.56 269.44 C 1.39 266.58 0.65 262.97 0.00 259.52 L 0.00 252.48 C 1.59 245.13 6.40 238.45 13.26 235.21 C 18.97 231.96 25.75 233.23 32.00 233.00 C 165.34 232.92 298.69 233.15 432.03 232.89 C 424.54 224.76 416.31 217.32 408.80 209.19 C 359.99 160.34 311.13 111.52 262.30 62.67 C 255.97 56.13 254.46 45.82 257.60 37.42 C 259.98 31.66 264.66 26.75 270.58 24.62 Z" /></g></svg>