<?xml version="1.0" encoding="UTF-8" ?><!DOCTYPE svg PUBLIC "-//W3C//DTD SVG 1.1//EN" "http://www.w3.org/Graphics/SVG/1.1/DTD/svg11.dtd"><svg width="512pt" height="512pt" viewBox="0 0 512 512" version="1.1" xmlns="http://www.w3.org/2000/svg"><g id="#ffffffff"><path fill="#ffffff" opacity="1.00" d=" M 215.69 29.69 C 224.93 20.12 242.42 20.90 250.72 31.30 C 256.74 38.41 257.54 49.13 253.44 57.37 C 251.32 61.70 247.51 64.81 244.19 68.19 C 215.68 96.68 187.19 125.19 158.69 153.69 C 132.39 180.04 105.91 206.22 79.96 232.90 C 216.66 233.14 353.37 232.91 490.08 233.02 C 500.83 233.24 509.91 242.20 512.00 252.47 L 512.00 259.51 C 511.38 263.45 510.27 267.52 507.55 270.56 C 503.44 275.24 497.24 277.81 491.07 277.99 C 388.72 278.02 286.36 277.98 184.00 278.01 C 159.00 278.91 133.99 277.37 108.98 278.24 C 99.36 278.37 89.73 278.22 80.11 278.26 C 112.42 311.47 145.50 343.96 178.19 376.81 C 201.86 400.48 225.51 424.17 249.21 447.81 C 258.17 456.52 258.30 472.58 249.29 481.30 C 242.57 488.26 231.48 489.67 222.72 486.11 C 217.61 483.99 214.04 479.58 210.18 475.82 C 142.52 408.14 74.85 340.48 7.18 272.81 C 3.21 269.02 0.86 263.87 0.00 258.49 L 0.00 251.48 C 1.44 246.10 3.98 240.94 8.16 237.17 C 77.38 168.06 146.50 98.83 215.69 29.69 Z" /></g></svg>