<?xml version="1.0" encoding="UTF-8" ?><!DOCTYPE svg PUBLIC "-//W3C//DTD SVG 1.1//EN" "http://www.w3.org/Graphics/SVG/1.1/DTD/svg11.dtd"><svg width="512pt" height="512pt" viewBox="0 0 512 512" version="1.1" xmlns="http://www.w3.org/2000/svg"><path fill="#ffffff" opacity="1.00" d=" M 149.84 0.00 L 362.12 0.00 C 391.66 1.25 420.83 10.95 445.04 27.97 C 472.30 46.94 493.36 74.76 503.89 106.29 C 508.68 120.32 511.28 135.04 512.00 149.83 L 512.00 362.13 C 510.51 399.29 495.30 435.73 469.67 462.71 C 442.12 492.40 402.63 510.42 362.18 512.00 L 149.38 512.00 C 121.47 510.66 93.89 501.93 70.57 486.48 C 42.49 468.07 20.52 440.46 9.20 408.83 C 3.94 394.59 1.18 379.57 0.00 364.48 L 0.00 149.90 C 0.58 138.44 2.19 127.01 5.19 115.92 C 13.86 83.07 33.74 53.40 60.60 32.64 C 85.99 12.81 117.67 1.34 149.84 0.00 M 140.58 43.87 C 125.56 45.99 110.98 51.15 98.00 59.00 C 74.18 73.22 55.92 96.46 47.80 123.00 C 43.93 135.25 42.55 148.15 42.63 160.96 C 42.67 225.64 42.56 290.32 42.68 355.01 C 42.65 381.18 51.79 407.29 68.51 427.47 C 87.03 450.28 114.70 465.47 143.95 468.53 C 153.93 469.70 164.00 469.29 174.03 469.37 C 233.35 469.37 292.67 469.37 351.99 469.37 C 363.70 469.38 375.47 468.16 386.74 464.88 C 414.44 457.04 438.78 438.17 453.37 413.37 C 464.07 395.55 469.41 374.73 469.34 353.99 C 469.41 293.00 469.35 232.02 469.37 171.03 C 469.33 162.33 469.59 153.60 468.63 144.93 C 466.92 127.45 460.96 110.41 451.52 95.60 C 437.39 73.26 415.25 56.11 390.04 48.13 C 377.77 44.13 364.82 42.59 351.95 42.63 C 288.29 42.62 224.63 42.64 160.97 42.63 C 154.15 42.64 147.33 42.93 140.58 43.87 Z" /><path fill="#ffffff" opacity="1.00" d=" M 384.23 94.27 C 398.10 91.25 413.20 100.31 417.01 113.99 C 421.50 127.55 413.89 143.47 400.65 148.69 C 391.62 152.48 380.64 151.20 372.78 145.33 C 364.55 139.44 360.06 128.92 361.35 118.89 C 362.57 106.87 372.35 96.41 384.23 94.27 Z" /><path fill="#ffffff" opacity="1.00" d=" M 240.52 128.80 C 263.17 126.11 286.56 129.42 307.45 138.65 C 336.87 151.44 361.05 175.76 373.67 205.26 C 384.74 230.79 387.06 259.97 380.33 286.95 C 373.88 313.34 358.63 337.42 337.70 354.69 C 319.89 369.48 298.00 379.34 275.08 382.66 C 265.47 384.33 255.69 384.11 245.99 383.70 C 216.09 381.52 187.15 368.28 165.94 347.09 C 146.09 327.65 132.94 301.52 129.16 274.00 C 126.93 257.73 127.67 241.04 131.65 225.10 C 138.93 195.22 157.54 168.32 182.82 150.85 C 199.84 138.87 219.88 131.33 240.52 128.80 M 242.59 171.79 C 218.58 175.51 196.60 190.14 183.78 210.76 C 172.20 229.00 168.06 251.77 172.45 272.93 C 176.06 291.12 185.93 307.97 199.92 320.13 C 214.97 333.46 234.91 341.08 255.01 341.24 C 272.44 341.50 289.87 336.14 304.20 326.23 C 321.36 314.48 334.00 296.28 338.84 276.03 C 342.96 259.34 341.76 241.41 335.56 225.39 C 328.92 208.07 316.43 193.08 300.62 183.40 C 283.51 172.72 262.49 168.60 242.59 171.79 Z" /></svg>