<?xml version="1.0" encoding="UTF-8" ?><!DOCTYPE svg PUBLIC "-//W3C//DTD SVG 1.1//EN" "http://www.w3.org/Graphics/SVG/1.1/DTD/svg11.dtd"><svg width="512pt" height="512pt" viewBox="0 0 512 512" version="1.1" xmlns="http://www.w3.org/2000/svg"><g id="#ffffffff"><path fill="#ffffff" opacity="1.00" d=" M 290.50 34.58 C 295.37 29.66 302.75 27.31 309.56 28.66 C 316.09 29.77 321.97 34.11 324.86 40.08 C 352.36 92.97 379.89 145.85 407.38 198.74 C 438.02 198.79 468.66 198.67 499.30 198.80 C 507.93 199.53 512.77 208.87 512.00 216.82 L 512.00 235.75 C 511.53 239.41 512.23 243.31 510.78 246.81 C 508.64 252.20 502.84 255.91 497.04 255.53 C 490.35 255.48 483.65 255.51 476.96 255.50 C 463.30 316.72 449.78 377.97 436.10 439.17 C 430.46 463.96 406.46 482.75 381.10 482.73 C 298.06 482.78 215.02 482.73 131.98 482.75 C 118.71 482.87 105.38 478.34 95.21 469.77 C 85.45 461.69 78.64 450.22 75.90 437.88 C 62.24 376.59 48.69 315.28 35.00 254.00 C 27.98 253.97 20.95 254.03 13.93 253.99 C 8.93 253.95 3.83 251.16 1.65 246.55 C 0.26 243.87 0.35 240.73 0.00 237.81 L 0.00 218.15 C 0.46 214.50 -0.23 210.58 1.34 207.13 C 3.45 202.22 8.64 198.74 13.98 198.74 C 44.19 198.76 74.40 198.74 104.62 198.75 C 132.14 145.86 159.66 92.96 187.16 40.06 C 189.14 36.20 192.25 32.90 196.12 30.91 C 203.94 26.60 214.46 27.85 220.94 34.04 C 226.17 38.73 228.63 46.17 227.52 53.08 C 226.87 57.53 224.38 61.39 222.39 65.33 C 199.30 109.72 176.18 154.09 153.11 198.49 C 221.70 198.50 290.29 198.50 358.88 198.49 C 335.96 154.24 312.87 110.08 289.90 65.85 C 288.43 62.97 286.76 60.18 285.59 57.16 C 282.64 49.54 284.60 40.26 290.50 34.58 M 153.18 285.19 C 147.31 286.42 142.50 291.82 142.52 297.92 C 142.46 335.28 142.54 372.65 142.48 410.01 C 141.41 420.30 153.43 428.03 162.54 423.68 C 167.58 421.72 170.90 416.43 170.74 411.07 C 170.76 375.04 170.74 339.02 170.75 303.00 C 170.73 299.69 171.05 296.22 169.59 293.14 C 166.86 287.10 159.63 283.49 153.18 285.19 M 251.35 285.55 C 246.00 287.06 241.88 292.25 241.99 297.86 C 242.01 335.57 242.01 373.28 241.98 410.99 C 241.52 418.42 248.63 425.04 255.92 424.78 C 263.01 425.24 270.07 419.35 270.00 412.07 C 269.98 373.61 270.04 335.15 269.97 296.69 C 268.97 288.27 259.22 282.61 251.35 285.55 M 350.37 285.67 C 344.43 287.55 340.63 293.79 341.24 299.93 C 341.27 335.62 341.25 371.31 341.25 407.00 C 341.28 409.39 341.05 411.83 341.62 414.19 C 343.05 420.60 349.63 425.31 356.14 424.78 C 362.93 424.82 369.26 419.12 369.46 412.24 C 369.54 374.19 369.49 336.13 369.49 298.07 C 369.38 288.90 358.77 282.22 350.37 285.67 Z" /></g></svg>