<?xml version="1.0" encoding="UTF-8" ?><!DOCTYPE svg PUBLIC "-//W3C//DTD SVG 1.1//EN" "http://www.w3.org/Graphics/SVG/1.1/DTD/svg11.dtd"><svg width="512pt" height="512pt" viewBox="0 0 512 512" version="1.1" xmlns="http://www.w3.org/2000/svg"><g id="#ffffffff"><path fill="#ffffff" opacity="1.00" d=" M 54.83 4.81 C 61.39 0.24 70.12 -0.92 77.69 1.61 C 81.60 2.87 85.04 5.19 88.56 7.25 C 210.18 79.70 331.79 152.15 453.40 224.60 C 458.80 228.23 462.71 233.78 465.47 239.60 C 472.97 255.60 468.33 276.48 454.20 287.27 C 331.59 360.31 208.97 433.34 86.36 506.37 C 81.90 509.07 77.06 511.33 71.84 512.00 L 67.45 512.00 C 53.88 511.16 42.59 498.53 43.08 484.98 C 43.04 332.66 43.07 180.34 43.06 28.02 C 42.72 18.95 47.23 9.84 54.83 4.81 Z" /></g></svg>