<?xml version="1.0" encoding="UTF-8" ?><!DOCTYPE svg PUBLIC "-//W3C//DTD SVG 1.1//EN" "http://www.w3.org/Graphics/SVG/1.1/DTD/svg11.dtd"><svg width="512pt" height="512pt" viewBox="0 0 512 512" version="1.1" xmlns="http://www.w3.org/2000/svg"><g id="#2b2847ff"><path fill="#2b2847" opacity="1.00" d=" M 370.46 0.00 L 376.32 0.00 C 380.02 2.01 384.51 5.21 383.75 10.04 C 382.64 20.69 376.64 29.94 370.96 38.72 C 390.97 65.72 402.09 99.36 401.19 133.02 C 400.70 147.18 398.28 161.29 393.81 174.75 C 392.07 180.76 389.30 186.59 389.04 192.94 C 388.36 202.77 391.34 212.51 396.05 221.05 C 406.10 239.30 420.74 254.33 433.21 270.86 C 435.98 274.62 439.21 278.35 440.03 283.10 C 441.76 291.24 438.59 300.88 431.09 305.08 C 421.64 310.69 411.48 314.95 401.50 319.49 C 405.10 326.87 409.94 334.49 408.85 343.08 C 408.34 348.13 406.66 353.37 402.52 356.61 C 397.76 360.94 391.20 362.14 385.01 362.62 C 369.10 364.31 352.91 364.94 337.08 362.34 C 329.83 361.52 326.12 351.47 331.10 346.14 C 334.01 342.08 339.51 342.56 343.88 343.07 C 358.67 344.97 373.62 343.89 388.38 342.27 C 387.59 334.17 382.07 327.72 380.12 319.99 C 378.87 315.36 380.37 310.16 384.06 307.06 C 393.85 297.96 408.42 297.62 418.86 289.62 C 420.23 286.70 417.92 283.97 416.29 281.76 C 400.96 261.83 382.58 243.42 373.46 219.52 C 368.67 207.76 367.71 194.59 370.42 182.21 C 371.92 174.70 375.41 167.78 377.21 160.35 C 386.80 124.20 378.60 84.28 357.05 53.92 C 340.52 68.49 323.54 82.52 306.38 96.34 C 283.15 114.95 259.65 133.44 239.09 155.06 C 218.37 176.40 201.20 201.42 190.42 229.22 C 170.42 280.08 169.38 338.61 189.49 389.59 C 193.63 399.69 198.38 409.52 202.70 419.54 C 209.80 416.58 217.26 414.09 225.03 413.94 C 250.60 412.61 275.13 421.22 299.08 429.00 C 315.04 433.87 331.05 440.13 347.97 440.03 C 356.16 440.14 364.57 435.38 367.71 427.65 C 369.50 423.54 368.50 418.93 367.37 414.78 C 364.71 405.46 358.93 396.88 359.00 386.90 C 359.16 377.12 367.06 368.91 376.05 366.09 C 379.55 365.04 383.65 364.08 387.04 365.98 C 392.02 368.56 394.16 375.96 390.42 380.43 C 387.38 384.08 382.51 385.15 378.39 387.10 C 383.49 400.79 391.04 414.95 388.06 430.02 C 383.93 449.01 363.86 461.41 345.06 460.18 C 307.21 458.01 273.65 436.85 236.01 433.49 C 226.92 432.53 217.81 434.29 209.11 436.83 C 214.19 454.68 216.64 474.86 208.00 492.03 C 202.77 503.16 191.24 509.94 179.45 512.00 L 165.08 512.00 C 161.50 511.11 157.87 509.24 156.07 505.86 C 153.31 501.05 155.86 493.98 161.30 492.44 C 169.00 490.40 177.94 493.87 184.86 488.86 C 192.61 482.89 194.19 472.18 193.57 463.02 C 192.26 440.39 180.56 420.42 172.00 399.98 C 143.79 331.55 151.03 250.27 188.90 186.95 C 204.76 160.36 226.46 137.82 249.44 117.31 C 278.29 91.71 309.75 69.23 338.67 43.69 C 348.37 34.85 357.91 24.99 362.44 12.40 C 363.82 7.57 365.96 2.69 370.46 0.00 Z" /><path fill="#2b2847" opacity="1.00" d=" M 322.30 22.36 C 328.14 19.46 335.99 24.34 336.01 30.87 C 336.52 34.17 334.80 37.26 332.46 39.44 C 306.84 63.60 277.78 83.82 247.38 101.46 C 218.01 118.60 188.26 135.84 163.41 159.33 C 150.74 171.06 139.12 183.91 128.67 197.64 C 111.61 221.37 105.04 251.19 105.36 280.05 C 106.30 319.49 117.14 358.32 134.31 393.70 C 139.62 404.92 145.75 415.77 153.38 425.59 C 155.58 428.81 159.26 431.77 158.78 436.09 C 158.80 441.56 153.46 446.53 147.95 445.77 C 142.35 445.36 139.08 440.12 136.02 436.06 C 119.60 412.94 107.90 386.76 99.25 359.83 C 89.37 329.00 83.77 296.47 85.86 264.04 C 87.03 246.15 90.91 228.40 97.82 211.84 C 108.71 186.04 128.22 165.25 148.18 146.14 C 171.78 122.77 200.59 105.74 229.00 88.95 C 249.69 76.68 270.52 64.43 289.44 49.49 C 300.72 40.86 311.26 31.28 322.30 22.36 Z" /><path fill="#2b2847" opacity="1.00" d=" M 227.44 54.53 C 233.44 51.29 241.04 56.53 241.50 62.98 C 242.00 67.18 238.86 70.46 236.52 73.55 C 226.79 85.09 212.95 92.40 198.74 96.89 C 186.70 100.74 174.23 102.93 162.09 106.40 C 143.31 111.61 124.96 119.36 109.46 131.34 C 100.74 137.95 93.99 146.67 86.59 154.64 C 81.49 160.57 69.98 156.88 69.48 148.98 C 68.68 142.55 74.44 138.49 77.98 134.03 C 98.37 108.77 128.88 93.86 159.90 86.19 C 178.52 81.03 198.87 78.80 214.69 66.73 C 219.67 63.43 222.16 57.44 227.44 54.53 Z" /><path fill="#2b2847" opacity="1.00" d=" M 224.19 236.88 C 221.01 230.92 226.14 222.40 233.01 223.00 C 245.58 224.08 258.06 226.03 270.55 227.77 C 276.15 228.38 280.55 234.52 278.90 240.01 C 278.12 243.40 275.06 245.44 272.62 247.62 C 280.23 252.51 288.30 256.83 295.16 262.78 C 301.48 269.24 293.61 281.68 285.05 278.76 C 276.63 275.06 269.46 269.13 261.83 264.09 C 260.97 268.30 258.85 272.85 254.52 274.39 C 250.99 275.35 246.71 274.68 244.21 271.84 C 242.27 269.67 240.93 267.07 239.54 264.55 C 234.60 255.23 228.91 246.31 224.19 236.88 Z" /><path fill="#2b2847" opacity="1.00" d=" M 197.42 293.86 C 194.92 287.39 201.37 279.74 208.15 281.15 C 219.52 283.20 230.82 285.69 242.16 287.92 C 246.18 288.73 250.81 290.67 251.87 295.08 C 254.25 300.60 249.80 305.88 245.24 308.47 C 252.47 314.03 260.41 318.78 266.75 325.40 C 272.21 332.28 263.78 343.78 255.59 340.41 C 247.41 336.25 240.73 329.81 233.47 324.30 C 232.60 326.64 231.78 329.14 229.88 330.88 C 226.79 334.22 221.30 335.11 217.42 332.68 C 214.06 330.12 212.23 326.17 210.65 322.38 C 206.57 312.72 201.21 303.64 197.42 293.86 Z" /></g></svg>