<?xml version="1.0" encoding="UTF-8" ?> <!DOCTYPE svg PUBLIC "-//W3C//DTD SVG 1.1//EN" "http://www.w3.org/Graphics/SVG/1.1/DTD/svg11.dtd"> <svg width="512pt" height="512pt" viewBox="0 0 512 512" version="1.1" xmlns="http://www.w3.org/2000/svg"> <g id="#ffffffff"> <path fill="#ffffff" opacity="1.00" d=" M 385.84 7.91 C 393.35 0.40 405.52 -1.69 415.15 2.71 C 424.55 6.78 431.12 16.69 430.93 26.97 C 430.95 172.97 430.93 318.97 430.94 464.97 C 431.02 470.45 430.88 476.05 429.15 481.31 C 425.46 493.89 415.54 504.40 403.24 508.90 C 388.65 514.43 372.39 510.11 357.36 511.12 L 369.37 512.00 L 160.37 512.00 C 150.03 511.87 129.37 511.60 119.04 511.46 C 110.38 510.68 101.97 507.27 95.32 501.66 C 85.72 493.76 79.92 481.46 80.07 469.01 C 80.06 344.66 80.06 220.32 80.07 95.97 C 80.00 84.97 84.56 74.07 92.34 66.33 C 99.79 58.67 110.27 54.03 120.95 53.72 C 206.51 53.73 292.08 53.71 377.64 53.73 C 377.61 44.81 377.60 35.89 377.64 26.97 C 377.69 19.86 380.65 12.79 385.84 7.91 M 153.37 107.28 C 142.62 108.58 133.72 118.30 133.38 129.12 C 133.37 167.43 133.39 205.74 133.37 244.06 C 133.43 255.97 144.11 266.59 156.03 266.55 C 222.35 266.54 288.68 266.55 355.00 266.55 C 366.64 266.56 377.08 256.46 377.60 244.86 C 377.64 206.28 377.61 167.69 377.62 129.11 C 377.29 117.42 366.84 107.08 355.10 107.12 C 313.38 107.11 271.66 107.12 229.95 107.12 C 204.42 107.22 178.88 106.90 153.37 107.28 M 153.24 310.15 C 142.10 312.85 133.51 323.51 133.36 334.99 C 132.98 343.28 136.94 351.54 143.44 356.63 C 150.37 362.28 160.27 363.92 168.66 360.85 C 181.26 356.61 189.25 341.97 185.46 329.12 C 182.20 315.44 166.83 306.20 153.24 310.15 M 249.11 310.09 C 237.55 312.81 228.62 324.13 229.07 336.06 C 228.79 348.60 238.86 360.15 251.18 362.02 C 261.18 363.82 271.96 359.07 277.49 350.57 C 282.69 343.07 283.38 332.79 279.48 324.57 C 274.41 313.41 261.02 306.81 249.11 310.09 M 342.54 310.75 C 334.31 313.58 327.70 320.66 325.55 329.11 C 322.94 338.24 326.04 348.62 332.97 355.05 C 340.05 362.02 351.25 364.29 360.50 360.67 C 373.06 356.15 380.68 341.34 376.63 328.52 C 372.95 314.37 356.30 305.51 342.54 310.75 M 153.56 405.84 C 140.10 408.88 130.72 423.52 133.88 437.02 C 136.40 450.51 150.59 460.45 164.14 457.79 C 178.94 455.79 189.71 439.54 185.51 425.14 C 182.37 411.44 167.19 402.18 153.56 405.84 M 249.50 405.79 C 237.72 408.40 228.54 419.86 229.07 432.00 C 228.87 444.37 238.73 455.82 250.90 457.75 C 260.49 459.60 270.86 455.43 276.63 447.58 C 282.39 440.21 283.55 429.67 279.83 421.13 C 275.06 409.64 261.62 402.73 249.50 405.79 M 345.48 405.70 C 331.45 408.54 321.53 424.02 325.44 437.93 C 328.36 451.17 342.60 460.53 355.92 457.72 C 370.58 455.46 381.00 439.29 376.81 425.01 C 373.66 411.57 358.93 402.44 345.48 405.70 Z" /> </g> </svg>
