<?xml version="1.0" encoding="UTF-8" ?><!DOCTYPE svg PUBLIC "-//W3C//DTD SVG 1.1//EN" "http://www.w3.org/Graphics/SVG/1.1/DTD/svg11.dtd"><svg width="512pt" height="512pt" viewBox="0 0 512 512" version="1.1" xmlns="http://www.w3.org/2000/svg"><path fill="#ffffff" opacity="1.00" d=" M 0.00 63.04 C 0.27 52.02 10.08 42.76 20.95 42.48 C 127.95 42.52 234.96 42.50 341.96 42.49 C 352.65 42.87 362.41 52.04 362.59 62.91 C 362.63 91.74 362.62 120.57 362.59 149.41 C 384.06 149.37 405.54 149.41 427.02 149.38 C 432.40 149.40 437.73 151.62 441.56 155.41 C 463.04 176.94 484.55 198.43 506.07 219.93 C 509.52 223.38 511.41 228.10 512.00 232.91 L 512.00 342.71 C 511.45 353.17 502.36 362.31 491.85 362.59 C 481.92 362.65 472.00 362.59 462.08 362.60 C 469.17 377.20 471.05 394.19 467.73 410.06 C 464.09 427.87 453.54 444.14 438.86 454.84 C 427.10 463.65 412.65 468.44 398.06 469.49 C 381.12 470.06 363.93 464.87 350.31 454.73 C 340.91 447.76 333.12 438.59 327.89 428.10 C 317.65 407.92 317.37 382.94 327.27 362.58 C 279.76 362.63 232.24 362.63 184.73 362.58 C 191.72 376.86 193.56 393.44 190.62 409.01 C 187.18 427.16 176.57 443.75 161.72 454.71 C 148.11 464.85 130.93 470.05 114.00 469.49 C 101.08 468.51 88.23 464.79 77.30 457.69 C 63.87 449.24 53.37 436.33 47.64 421.55 C 40.37 402.69 41.07 380.81 49.92 362.60 C 40.01 362.59 30.08 362.65 20.17 362.59 C 9.77 362.33 0.80 353.40 0.00 343.10 L 0.00 63.04 M 42.57 85.40 C 42.67 163.62 42.57 241.83 42.62 320.05 C 135.10 319.94 227.58 320.20 320.06 319.91 C 320.04 241.75 320.01 163.58 320.06 85.41 C 227.57 85.36 135.07 85.39 42.57 85.40 M 362.62 191.95 C 362.60 234.66 362.60 277.36 362.62 320.06 C 398.21 319.99 433.79 320.03 469.38 320.05 C 469.45 294.59 469.30 269.12 469.45 243.65 C 452.32 226.43 435.19 209.19 417.89 192.15 C 399.49 191.71 381.04 192.12 362.62 191.95 M 109.43 363.62 C 101.60 365.56 94.69 370.69 90.35 377.45 C 82.84 388.80 83.87 404.90 92.78 415.19 C 102.08 426.78 119.82 430.16 132.71 422.73 C 146.13 415.68 152.94 398.41 147.59 384.15 C 142.57 368.88 125.00 359.21 109.43 363.62 M 386.46 363.70 C 378.96 365.67 372.29 370.51 368.01 376.96 C 359.57 389.06 361.30 406.84 371.87 417.11 C 382.43 428.32 401.34 429.90 413.55 420.49 C 425.91 411.85 430.33 393.99 423.42 380.58 C 417.09 367.19 400.78 359.55 386.46 363.70 Z" /></svg>