<?xml version="1.0" encoding="UTF-8" ?><!DOCTYPE svg PUBLIC "-//W3C//DTD SVG 1.1//EN" "http://www.w3.org/Graphics/SVG/1.1/DTD/svg11.dtd"><svg width="512pt" height="512pt" viewBox="0 0 512 512" version="1.1" xmlns="http://www.w3.org/2000/svg"><g id="#ffffffff"><path fill="#ffffff" opacity="1.00" d=" M 25.84 89.10 C 60.88 78.81 97.45 73.53 133.98 74.24 C 170.27 74.77 206.21 81.85 240.92 92.13 C 271.24 101.79 302.83 108.10 334.72 108.58 C 370.32 109.80 406.17 105.08 440.17 94.39 C 447.25 91.76 455.50 91.16 462.44 94.53 C 468.49 97.50 471.95 104.27 472.25 110.81 C 472.76 170.87 472.38 230.94 472.51 291.01 C 472.46 295.22 472.50 299.69 470.35 303.46 C 465.12 313.34 451.13 317.46 441.57 311.48 C 435.92 308.08 432.62 301.52 432.49 295.02 C 432.51 260.37 432.49 225.71 432.50 191.05 C 432.35 173.57 432.82 156.07 432.22 138.59 C 414.72 142.32 397.12 145.86 379.26 147.38 C 342.40 150.84 305.01 148.76 268.78 141.07 C 253.05 137.88 237.77 132.95 222.41 128.40 C 163.50 111.68 99.88 109.60 40.76 126.46 C 40.74 208.40 40.75 290.33 40.75 372.27 C 51.32 370.29 61.84 368.00 72.45 366.26 C 123.86 358.44 176.85 361.91 226.97 375.64 C 236.36 378.21 245.64 381.16 254.93 384.06 C 281.28 391.88 308.53 397.00 336.04 397.90 C 349.03 398.63 356.88 414.22 352.61 425.79 C 349.99 433.81 341.22 438.65 333.02 437.76 C 297.59 436.77 262.90 428.14 229.14 417.91 C 164.36 396.82 92.93 396.71 28.20 418.05 C 18.77 421.78 7.62 416.74 3.08 407.95 C 1.03 404.34 0.58 400.10 0.74 396.02 C 0.77 301.65 0.74 207.29 0.75 112.93 C 0.49 106.09 4.17 99.61 9.66 95.69 C 14.34 91.99 20.29 90.84 25.84 89.10 Z" /><path fill="#ffffff" opacity="1.00" d=" M 101.56 146.85 C 121.67 145.60 141.90 145.59 161.98 147.56 C 170.73 147.87 178.59 153.88 182.62 161.45 C 185.73 166.95 184.85 174.13 181.23 179.17 C 176.16 186.18 166.79 188.56 158.55 187.59 C 138.15 185.35 117.53 185.68 97.14 187.75 C 88.87 188.34 79.60 185.21 75.26 177.74 C 69.49 167.34 75.36 152.32 86.82 148.88 C 91.65 147.74 96.63 147.36 101.56 146.85 Z" /><path fill="#ffffff" opacity="1.00" d=" M 225.51 182.73 C 258.81 177.02 293.48 198.49 305.50 229.61 C 311.39 244.49 311.49 261.44 306.37 276.55 C 299.75 296.28 285.10 313.29 266.28 322.28 C 252.38 329.00 236.23 330.73 221.17 327.49 C 189.94 320.77 164.60 291.89 163.16 259.79 C 161.22 223.51 189.61 188.41 225.51 182.73 M 229.55 222.82 C 210.68 227.49 198.02 250.26 205.69 268.51 C 212.19 283.95 231.36 291.52 247.05 286.92 C 255.03 284.78 262.02 279.09 265.57 271.61 C 272.29 257.84 268.71 239.95 257.44 229.64 C 250.03 222.91 239.22 220.49 229.55 222.82 Z" /><path fill="#ffffff" opacity="1.00" d=" M 305.15 326.12 C 308.58 325.42 312.07 326.08 315.52 326.33 C 325.33 327.06 335.16 327.94 345.01 327.74 C 351.74 327.85 359.05 330.13 363.30 335.64 C 370.14 345.24 366.42 360.48 355.82 365.75 C 349.34 369.10 341.88 367.59 334.91 367.71 C 325.05 367.01 315.12 367.01 305.35 365.41 C 299.72 364.07 294.23 360.87 291.17 355.85 C 285.00 344.56 292.29 328.31 305.15 326.12 Z" /><path fill="#ffffff" opacity="1.00" d=" M 411.49 353.31 C 438.38 353.17 465.27 353.30 492.15 353.24 C 505.57 353.58 515.24 369.86 509.59 381.90 C 506.44 389.03 498.66 393.37 490.99 393.24 C 464.96 393.23 438.92 393.32 412.88 393.19 C 401.67 392.93 391.97 382.07 393.30 370.87 C 394.15 361.66 402.40 354.08 411.49 353.31 Z" /></g></svg>