<?xml version="1.0" encoding="UTF-8" ?><!DOCTYPE svg PUBLIC "-//W3C//DTD SVG 1.1//EN" "http://www.w3.org/Graphics/SVG/1.1/DTD/svg11.dtd"><svg width="252pt" height="312pt" viewBox="0 0 252 312" version="1.1" xmlns="http://www.w3.org/2000/svg"><g id="#ffffffff"><path fill="#ffffff" opacity="1.00" d=" M 36.00 0.00 L 55.20 0.00 C 59.88 14.66 62.73 29.88 67.93 44.37 C 72.56 29.77 75.66 14.73 79.83 0.00 L 99.18 0.00 C 93.98 17.32 87.86 34.35 82.29 51.55 C 80.35 57.91 77.24 64.14 77.48 70.95 C 77.56 84.77 77.49 98.59 77.54 112.41 C 71.14 112.33 64.74 112.34 58.34 112.42 C 58.31 101.28 58.31 90.14 58.34 79.00 C 58.31 74.06 58.77 68.97 57.05 64.23 C 49.90 42.87 42.81 21.48 36.00 0.00 Z"/><path fill="#ffffff" opacity="1.00" d=" M 121.26 27.84 C 128.81 27.11 137.07 28.89 142.44 34.56 C 146.57 38.54 148.25 44.37 148.17 49.99 C 148.19 63.66 148.19 77.32 148.17 90.99 C 148.20 96.90 146.82 103.19 142.48 107.48 C 136.52 113.72 127.16 115.06 118.97 113.92 C 112.32 113.06 105.95 109.23 102.72 103.26 C 100.61 99.56 99.95 95.24 100.01 91.03 C 100.05 76.66 99.99 62.29 100.03 47.92 C 99.96 43.18 101.62 38.39 104.99 34.99 C 109.12 30.44 115.26 28.32 121.26 27.84 M 120.30 43.15 C 117.62 44.24 117.13 47.38 117.25 49.93 C 117.38 64.61 117.10 79.29 117.39 93.96 C 117.41 99.98 125.96 101.50 129.42 97.45 C 131.13 95.40 130.93 92.55 131.06 90.04 C 131.03 77.01 131.04 63.97 131.05 50.93 C 130.95 48.58 131.11 45.78 129.16 44.07 C 126.72 42.11 123.10 41.82 120.30 43.15 Z"/><path fill="#ffffff" opacity="1.00" d=" M 161.20 29.67 C 166.74 29.79 172.29 29.79 177.84 29.67 C 178.06 50.45 177.82 71.24 177.95 92.03 C 177.91 94.44 178.51 97.33 181.16 98.14 C 184.76 98.18 187.92 95.88 190.42 93.50 C 191.84 92.47 191.49 90.59 191.61 89.08 C 191.58 69.31 191.55 49.54 191.62 29.77 C 197.26 29.74 202.89 29.74 208.53 29.76 C 208.62 57.26 208.62 84.76 208.53 112.26 C 202.88 112.28 197.24 112.28 191.59 112.26 C 191.60 109.28 191.56 106.30 191.71 103.32 C 187.35 108.27 181.57 112.35 174.92 113.32 C 170.82 113.94 166.18 112.85 163.63 109.37 C 161.10 105.80 161.15 101.19 161.11 97.00 C 161.20 74.55 161.03 52.11 161.20 29.67 Z"/><path fill="#ffffff" opacity="1.00" d=" M 68.52 144.83 C 106.18 142.50 143.99 142.45 181.65 144.75 C 196.63 145.76 211.67 146.83 226.39 149.95 C 230.85 150.98 235.55 152.03 239.24 154.90 C 242.70 158.12 244.03 162.86 245.43 167.22 C 248.74 179.18 249.92 191.59 250.80 203.92 C 250.97 206.10 251.43 208.24 252.00 210.34 L 252.00 243.56 C 250.62 248.13 250.67 252.94 250.24 257.65 C 249.11 269.00 247.84 280.50 243.99 291.30 C 242.54 295.44 240.31 299.91 235.85 301.40 C 224.53 305.76 212.30 306.70 200.36 308.07 C 181.62 309.74 162.82 310.73 144.01 310.97 C 133.69 311.39 123.35 311.55 113.03 311.14 C 85.12 310.43 57.06 309.73 29.47 305.13 C 22.09 303.48 12.61 302.32 9.27 294.39 C 1.56 276.72 2.30 256.98 0.00 238.21 L 0.00 215.86 C 2.05 198.30 1.90 180.22 7.67 163.30 C 9.07 159.65 10.69 155.57 14.36 153.66 C 19.07 151.10 24.41 150.08 29.62 149.05 C 42.48 146.80 55.51 145.72 68.52 144.83 M 137.35 175.79 C 137.27 209.33 137.31 242.87 137.32 276.42 C 142.01 276.30 146.71 276.28 151.40 276.42 C 151.48 274.67 151.58 272.92 151.72 271.18 C 154.95 273.60 158.17 276.43 162.31 277.04 C 166.59 277.71 171.67 277.31 174.78 273.91 C 178.43 269.91 178.88 264.20 179.00 259.04 C 179.00 246.69 179.01 234.34 178.99 221.99 C 178.79 217.12 178.67 211.97 176.22 207.62 C 173.84 203.37 168.77 201.12 164.00 201.55 C 159.12 201.76 155.42 205.29 151.66 207.96 C 151.31 197.24 151.59 186.52 151.50 175.80 C 146.78 175.92 142.06 175.92 137.35 175.79 M 27.51 175.92 C 27.41 180.66 27.41 185.40 27.51 190.15 C 33.20 190.16 38.88 190.15 44.57 190.19 C 44.50 218.89 44.50 247.60 44.56 276.30 C 49.84 276.36 55.11 276.35 60.39 276.31 C 60.50 247.61 60.46 218.90 60.41 190.19 C 66.08 190.15 71.75 190.16 77.42 190.14 C 77.51 185.40 77.51 180.66 77.42 175.92 C 60.78 175.87 44.15 175.88 27.51 175.92 M 193.99 205.93 C 189.42 209.93 187.10 216.02 186.99 222.02 C 186.85 232.36 186.99 242.70 186.93 253.04 C 186.89 259.39 187.81 266.18 191.81 271.35 C 195.80 276.51 202.66 278.67 209.01 278.36 C 215.20 278.16 222.08 276.21 225.71 270.80 C 229.52 265.33 229.71 258.38 229.53 251.96 C 224.74 251.91 219.94 251.87 215.15 252.09 C 214.73 256.36 215.58 261.16 213.03 264.91 C 209.56 266.35 203.24 266.82 202.34 261.99 C 200.79 255.16 201.91 248.07 201.50 241.13 C 210.83 240.94 220.17 241.11 229.50 241.03 C 229.56 234.02 229.67 227.00 229.48 219.98 C 229.26 213.48 226.52 206.51 220.53 203.30 C 212.22 198.92 201.21 199.80 193.99 205.93 M 84.46 202.41 C 84.63 223.62 84.41 244.82 84.56 266.03 C 84.46 271.06 87.36 277.13 93.03 277.36 C 100.38 278.16 106.03 272.78 111.47 268.76 C 111.62 271.29 111.68 273.83 111.68 276.38 C 116.35 276.31 121.02 276.29 125.69 276.42 C 125.76 251.74 125.67 227.05 125.74 202.38 C 121.02 202.47 116.31 202.45 111.59 202.43 C 111.77 219.96 111.59 237.50 111.69 255.03 C 111.54 256.83 112.08 259.05 110.41 260.31 C 107.75 262.89 104.06 265.38 100.18 264.24 C 98.36 262.27 98.56 259.49 98.52 257.02 C 98.61 238.82 98.49 220.61 98.60 202.41 C 93.88 202.46 89.17 202.46 84.46 202.41 Z"/><path fill="#ffffff" opacity="1.00" d=" M 153.53 213.77 C 156.54 212.85 160.97 212.02 163.00 215.13 C 164.48 217.45 164.36 220.33 164.40 222.98 C 164.34 234.66 164.36 246.35 164.39 258.04 C 164.36 260.58 164.29 263.54 162.23 265.37 C 158.16 267.17 150.92 265.47 151.45 260.01 C 151.50 245.69 151.40 231.37 151.50 217.05 C 151.26 215.55 152.36 214.48 153.53 213.77 Z"/><path fill="#ffffff" opacity="1.00" d=" M 202.30 217.21 C 203.60 211.64 213.18 211.80 214.41 217.36 C 215.33 221.42 214.85 225.63 214.90 229.76 C 210.48 229.78 206.06 229.79 201.64 229.72 C 201.82 225.56 201.29 221.30 202.30 217.21 Z"/></g></svg>