<?xml version="1.0" encoding="UTF-8" ?><!DOCTYPE svg PUBLIC "-//W3C//DTD SVG 1.1//EN" "http://www.w3.org/Graphics/SVG/1.1/DTD/svg11.dtd"><svg width="512pt" height="512pt" viewBox="0 0 512 512" version="1.1" xmlns="http://www.w3.org/2000/svg"><g id="#ffffffff"><path fill="#ffffff" opacity="1.00" d=" M 221.24 25.26 C 225.97 10.29 241.25 -0.56 256.99 0.29 C 275.53 0.18 292.15 16.49 292.52 35.00 C 292.51 96.49 292.56 157.98 292.50 219.48 C 354.03 219.47 415.56 219.47 477.08 219.48 C 491.76 219.92 505.36 230.34 509.88 244.28 C 513.27 254.46 512.06 266.18 506.31 275.30 C 500.16 285.38 488.84 292.12 477.02 292.52 C 415.52 292.52 354.01 292.53 292.50 292.52 C 292.56 353.67 292.49 414.83 292.54 475.99 C 292.53 485.52 288.32 494.87 281.50 501.48 C 271.36 511.54 255.14 514.56 242.01 509.02 C 228.86 503.77 219.45 490.25 219.46 476.04 C 219.50 414.87 219.43 353.69 219.49 292.52 C 157.98 292.53 96.47 292.52 34.96 292.52 C 24.84 292.17 15.05 287.19 8.62 279.39 C -0.50 268.64 -2.35 252.49 3.92 239.89 C 9.56 228.13 21.90 219.88 34.97 219.47 C 96.48 219.47 157.99 219.46 219.49 219.48 C 219.44 161.98 219.49 104.47 219.47 46.97 C 219.63 39.72 218.69 32.23 221.24 25.26 Z" /></g></svg>