<?xml version="1.0" encoding="UTF-8" ?><!DOCTYPE svg PUBLIC "-//W3C//DTD SVG 1.1//EN" "http://www.w3.org/Graphics/SVG/1.1/DTD/svg11.dtd"><svg width="512pt" height="512pt" viewBox="0 0 512 512" version="1.1" xmlns="http://www.w3.org/2000/svg"><g id="#ffffffff"><path fill="#ffffff" opacity="1.00" d=" M 195.91 29.22 C 239.11 22.80 284.17 29.08 323.89 47.26 C 350.88 59.53 375.42 77.08 395.90 98.51 C 387.34 111.37 378.47 124.03 369.60 136.68 C 364.40 131.79 360.00 126.10 354.58 121.43 C 322.04 90.56 277.69 72.85 232.93 71.84 C 201.43 71.40 169.77 78.93 142.08 94.02 C 110.02 111.28 83.29 138.30 66.46 170.58 C 50.39 200.89 43.31 235.82 45.99 270.00 C 48.58 303.31 60.60 335.79 80.20 362.84 C 97.87 387.25 121.51 407.36 148.61 420.56 C 180.41 436.27 216.87 442.28 252.04 437.84 C 292.13 433.04 330.22 414.25 358.82 385.81 C 393.16 352.00 413.27 304.22 413.28 256.00 C 394.17 255.80 375.03 256.41 355.94 255.68 C 356.73 254.24 357.52 252.80 358.42 251.42 C 383.72 214.92 408.89 178.33 434.23 141.84 C 439.41 149.03 444.50 156.27 449.53 163.57 C 470.17 193.97 491.59 223.84 512.00 254.40 L 512.00 256.00 C 494.09 255.87 476.17 256.29 458.26 255.71 C 458.36 281.48 454.01 307.25 445.38 331.53 C 432.69 367.69 410.63 400.48 382.06 426.00 C 352.96 452.00 317.20 470.61 279.04 478.97 C 229.07 490.01 175.37 484.02 129.38 461.44 C 100.57 447.51 74.85 427.32 54.20 402.90 C 30.83 375.41 14.22 342.25 6.14 307.09 C -3.35 266.19 -1.32 222.70 12.15 182.92 C 26.51 139.71 54.37 101.23 90.57 73.68 C 121.15 50.22 157.80 34.85 195.91 29.22 Z" /><path fill="#ffffff" opacity="1.00" d=" M 260.71 186.70 C 272.38 178.44 287.03 176.18 301.02 175.77 C 311.99 176.03 323.55 177.05 333.17 182.82 C 341.67 187.64 346.96 197.28 347.00 206.99 C 347.46 217.11 345.38 227.47 340.27 236.28 C 336.00 243.25 329.41 249.00 321.48 251.34 C 326.58 253.96 331.65 257.46 334.17 262.79 C 337.47 269.95 338.03 278.18 336.31 285.83 C 333.87 300.70 327.79 316.09 315.24 325.24 C 301.82 334.54 284.80 335.57 269.00 335.25 C 257.72 334.91 245.62 333.66 236.29 326.70 C 229.22 321.07 225.85 311.81 225.99 302.94 C 225.57 290.09 227.71 276.66 234.96 265.78 C 239.45 259.14 246.12 253.98 253.78 251.53 C 249.54 248.77 245.10 245.68 242.94 240.93 C 239.48 233.79 239.87 225.49 241.37 217.90 C 243.71 205.64 250.22 193.79 260.71 186.70 M 292.26 206.67 C 286.95 210.01 285.61 216.77 284.32 222.47 C 283.37 227.88 281.90 234.52 286.22 238.89 C 289.24 239.54 292.99 239.81 295.29 237.31 C 300.10 232.56 301.34 225.54 302.19 219.12 C 302.31 214.96 303.64 209.74 300.14 206.55 C 297.63 205.51 294.72 205.44 292.26 206.67 M 280.27 268.23 C 276.84 270.40 274.85 274.17 273.64 277.93 C 271.40 284.72 270.35 291.88 270.23 299.02 C 270.42 301.57 270.42 304.68 272.58 306.47 C 277.02 309.43 283.61 307.61 286.22 303.03 C 290.04 296.75 291.12 289.31 292.20 282.17 C 292.81 277.08 293.54 270.73 288.89 267.23 C 286.02 267.38 282.88 266.74 280.27 268.23 Z" /><path fill="#ffffff" opacity="1.00" d=" M 179.05 180.00 C 194.06 179.44 209.10 180.12 224.11 179.33 C 225.12 179.19 227.10 179.36 226.74 180.91 C 226.84 183.68 226.15 186.38 225.71 189.10 C 220.89 217.02 216.85 245.07 211.91 272.96 C 216.29 273.22 220.67 273.00 225.05 273.29 C 224.81 278.25 224.13 283.17 223.11 288.02 C 221.89 293.59 221.80 299.37 220.07 304.83 C 215.69 305.67 211.21 304.90 206.81 305.49 C 205.27 314.66 204.08 323.90 202.16 333.00 C 188.68 333.00 175.19 333.00 161.71 332.99 C 162.09 323.81 163.99 314.79 165.56 305.76 C 150.37 305.34 135.17 305.55 119.97 305.50 C 117.18 305.46 114.34 305.76 111.60 305.07 C 111.89 297.30 113.60 289.61 114.43 281.87 C 115.20 278.27 114.74 274.19 117.03 271.09 C 133.64 246.60 150.24 222.11 166.80 197.59 C 170.98 191.79 174.47 185.50 179.05 180.00 M 150.88 273.22 C 157.79 273.53 164.72 273.63 171.63 273.24 C 173.58 259.43 175.77 245.65 177.95 231.89 C 168.73 245.54 160.41 259.78 150.88 273.22 Z" /></g></svg>