<?xml version="1.0" encoding="UTF-8" ?><!DOCTYPE svg PUBLIC "-//W3C//DTD SVG 1.1//EN" "http://www.w3.org/Graphics/SVG/1.1/DTD/svg11.dtd"><svg width="512pt" height="512pt" viewBox="0 0 512 512" version="1.1" xmlns="http://www.w3.org/2000/svg"><g id="#2b2847ff"><path fill="#2b2847" opacity="1.00" d=" M 250.43 0.00 L 260.56 0.00 C 270.59 3.00 279.28 12.02 279.01 22.95 C 278.99 128.30 279.00 233.65 279.00 339.00 C 279.07 370.00 278.85 401.01 279.11 432.01 C 312.36 399.64 344.97 366.60 377.84 333.83 C 400.00 311.67 422.17 289.50 444.34 267.33 C 447.54 264.18 450.49 260.58 454.59 258.55 C 463.05 254.31 474.10 255.37 481.23 261.74 C 491.20 270.22 491.60 287.17 482.33 296.33 C 412.84 365.84 343.32 435.32 273.84 504.84 C 270.45 508.29 265.93 510.22 261.52 512.00 L 251.48 512.00 C 247.02 510.33 242.54 508.30 239.17 504.83 C 171.83 437.51 104.50 370.17 37.17 302.84 C 34.51 300.15 31.69 297.61 29.28 294.69 C 21.90 285.89 22.25 271.56 30.21 263.23 C 38.64 253.99 54.75 253.52 63.66 262.32 C 85.32 283.99 106.99 305.67 128.66 327.33 C 163.69 362.18 198.32 397.45 233.76 431.88 C 233.27 408.58 234.59 385.28 233.75 361.99 C 233.35 344.32 234.21 326.66 234.00 309.00 C 233.98 213.31 234.03 117.63 233.98 21.95 C 234.01 16.83 235.50 11.68 238.58 7.55 C 241.32 3.53 245.93 1.43 250.43 0.00 Z" /></g></svg>