<?xml version="1.0" encoding="UTF-8" ?><!DOCTYPE svg PUBLIC "-//W3C//DTD SVG 1.1//EN" "http://www.w3.org/Graphics/SVG/1.1/DTD/svg11.dtd"><svg width="134pt" height="286pt" viewBox="0 0 134 286" version="1.1" xmlns="http://www.w3.org/2000/svg"><g id="#ffffffff"><path fill="#ffffff" opacity="1.00" d=" M 83.09 0.00 L 133.34 0.00 C 133.45 16.62 133.50 33.25 133.32 49.87 C 125.87 49.85 118.43 49.86 110.98 49.83 C 105.51 49.89 99.75 50.04 94.78 52.61 C 91.12 54.63 89.72 59.04 89.48 62.97 C 89.04 73.19 88.83 83.42 89.10 93.65 C 103.92 93.51 118.75 93.56 133.57 93.62 C 132.11 110.26 130.06 126.84 128.48 143.47 C 115.32 143.26 102.15 143.27 88.99 143.45 C 88.95 190.97 89.09 238.48 88.92 286.00 L 29.62 286.00 C 29.68 238.46 29.68 190.92 29.62 143.38 C 19.75 143.34 9.87 143.27 0.00 143.43 L 0.00 93.55 C 9.87 93.53 19.73 93.59 29.60 93.52 C 30.29 73.41 27.60 52.54 34.44 33.18 C 38.80 20.04 49.63 9.43 62.70 4.97 C 69.23 2.29 76.36 1.94 83.09 0.00 Z"/></g></svg>