<?xml version="1.0" encoding="UTF-8" ?><!DOCTYPE svg PUBLIC "-//W3C//DTD SVG 1.1//EN" "http://www.w3.org/Graphics/SVG/1.1/DTD/svg11.dtd"><svg width="512pt" height="512pt" viewBox="0 0 512 512" version="1.1" xmlns="http://www.w3.org/2000/svg"><g id="#2b2847ff"><path fill="#2b2847" opacity="1.00" d=" M 198.88 0.00 L 312.57 0.00 C 321.19 0.99 327.82 10.05 325.45 18.54 C 323.85 25.73 316.66 30.40 309.50 30.16 C 309.50 47.58 309.50 65.01 309.50 82.44 C 345.58 91.58 379.22 110.13 406.16 135.83 C 441.54 169.30 465.20 214.93 471.89 263.19 C 478.14 307.15 470.74 353.02 450.51 392.58 C 434.34 424.50 410.16 452.32 380.80 472.77 C 345.54 497.62 302.72 511.25 259.62 512.00 L 252.41 512.00 C 225.85 511.41 199.36 506.27 174.71 496.30 C 120.09 474.62 75.23 429.77 53.57 375.14 C 38.57 337.91 34.29 296.47 41.09 256.92 C 48.00 216.10 67.01 177.49 94.94 146.95 C 123.46 115.52 161.39 92.90 202.51 82.45 C 202.49 65.02 202.50 47.59 202.51 30.16 C 194.85 30.44 187.35 24.87 186.38 17.11 C 185.03 9.15 191.16 1.52 198.88 0.00 M 232.42 30.12 C 232.61 76.75 232.43 123.39 232.51 170.02 C 232.60 173.02 232.16 176.07 230.79 178.77 C 219.96 201.50 209.10 224.20 198.30 246.94 C 216.77 256.56 235.23 266.21 253.69 275.86 C 260.16 268.98 266.87 262.23 274.58 256.72 C 285.61 248.71 299.29 243.99 313.00 245.41 C 302.42 223.16 291.78 200.93 281.17 178.70 C 279.80 176.02 279.40 172.99 279.49 170.01 C 279.58 123.38 279.38 76.76 279.58 30.13 C 263.87 29.90 248.14 29.93 232.42 30.12 M 96.95 193.97 C 121.87 206.98 146.77 220.01 171.69 233.02 C 181.30 212.86 190.90 192.71 200.53 172.56 C 201.31 170.76 202.56 169.03 202.50 166.98 C 202.49 149.18 202.51 131.38 202.49 113.59 C 159.08 126.38 120.97 155.67 96.95 193.97 M 309.51 113.58 C 309.47 130.38 309.53 147.19 309.48 163.99 C 309.55 165.62 309.26 167.33 309.80 168.91 C 333.64 219.67 357.98 270.21 382.29 320.75 C 386.40 329.85 391.48 338.74 393.08 348.72 C 405.12 354.91 417.08 361.24 429.08 367.49 C 445.32 329.40 448.54 285.89 437.76 245.89 C 429.90 216.27 414.62 188.68 393.81 166.19 C 371.09 141.53 341.69 123.07 309.51 113.58 M 80.49 361.43 C 92.69 393.20 113.78 421.46 140.66 442.32 C 162.20 459.14 187.46 471.20 214.12 477.25 C 253.53 486.32 295.85 482.25 332.73 465.61 C 366.43 450.54 395.46 425.29 415.11 394.04 C 406.73 389.66 398.35 385.27 389.95 380.91 C 383.42 397.99 369.08 411.93 351.60 417.48 C 344.01 420.02 335.96 420.66 328.01 420.54 C 278.99 420.52 229.96 420.55 180.93 420.52 C 172.17 420.58 163.35 419.07 155.29 415.57 C 138.81 408.60 125.90 393.96 120.76 376.85 C 116.29 362.52 117.53 346.57 124.00 333.04 C 135.57 308.72 147.19 284.42 158.76 260.11 C 133.49 246.95 108.29 233.67 82.99 220.57 C 63.89 264.83 62.96 316.52 80.49 361.43 M 185.35 274.03 C 181.27 282.63 177.15 291.22 173.06 299.82 C 182.68 306.77 193.68 313.57 205.98 313.17 C 216.59 312.74 225.39 305.85 232.68 298.75 C 216.93 290.45 201.13 282.26 185.35 274.03 M 304.42 275.57 C 295.18 277.30 287.71 283.80 281.47 290.45 C 305.07 302.55 328.46 315.04 352.04 327.19 C 345.60 313.59 339.05 300.04 332.63 286.44 C 332.09 285.36 331.59 284.17 330.46 283.60 C 322.81 278.61 313.84 274.02 304.42 275.57 M 260.33 313.24 C 254.52 319.46 248.37 325.42 241.46 330.41 C 230.70 338.36 217.55 343.49 204.05 343.17 C 188.04 342.97 173.07 335.97 159.98 327.25 C 156.85 333.95 153.50 340.55 150.52 347.32 C 145.87 358.09 148.21 371.32 156.09 379.97 C 162.21 387.08 171.66 390.80 180.96 390.52 C 231.64 390.52 282.33 390.59 333.01 390.49 C 346.94 390.63 359.57 380.27 363.07 366.95 C 328.89 348.92 294.62 331.06 260.33 313.24 Z" /></g></svg>