<?xml version="1.0" encoding="UTF-8" ?><!DOCTYPE svg PUBLIC "-//W3C//DTD SVG 1.1//EN" "http://www.w3.org/Graphics/SVG/1.1/DTD/svg11.dtd"><svg width="512pt" height="512pt" viewBox="0 0 512 512" version="1.1" xmlns="http://www.w3.org/2000/svg"><g id="#2b2847ff"><path fill="#2b2847" opacity="1.00" d=" M 209.79 53.01 C 207.59 48.81 211.97 44.37 216.16 44.45 C 232.44 44.18 248.74 44.41 265.03 44.34 C 272.63 44.45 280.30 43.91 287.84 45.13 C 297.57 46.88 306.85 50.67 315.41 55.57 C 336.07 67.46 353.63 83.87 370.67 100.36 C 382.94 111.76 394.26 124.15 406.85 135.20 C 409.40 137.63 412.86 138.62 416.08 139.84 C 430.61 145.10 445.60 149.79 458.63 158.32 C 469.18 165.58 478.34 174.68 486.75 184.30 C 498.64 198.62 509.27 215.11 512.00 233.87 L 512.00 243.60 C 510.99 253.46 505.67 262.87 497.45 268.48 C 487.77 275.38 475.66 277.80 463.98 278.22 C 450.34 278.58 436.60 276.08 424.03 270.76 C 426.95 289.69 429.03 309.75 422.25 328.13 C 416.55 344.45 403.85 357.49 389.11 366.08 C 385.80 368.05 382.46 369.96 379.11 371.84 C 397.96 397.37 416.53 423.11 435.34 448.68 C 436.87 450.84 438.51 453.20 438.44 455.99 C 438.93 461.84 434.01 467.69 428.01 467.61 C 417.33 467.72 406.65 467.68 395.98 467.63 C 389.86 467.66 384.28 464.22 380.53 459.55 C 356.92 431.07 333.35 402.54 309.75 374.05 C 306.56 370.29 303.65 366.28 300.09 362.87 C 297.99 364.12 296.08 365.66 294.65 367.66 C 287.10 377.41 278.66 386.76 268.13 393.36 C 251.62 403.91 231.81 408.18 212.42 408.59 C 212.49 409.63 212.57 410.68 212.64 411.73 C 240.45 411.78 268.26 411.68 296.06 411.78 C 301.85 411.68 307.10 415.79 308.76 421.27 C 312.04 431.16 310.24 441.76 310.34 451.96 C 310.53 460.18 303.26 467.73 294.99 467.64 C 228.33 467.68 161.66 467.69 94.99 467.63 C 82.33 467.49 72.12 458.82 63.54 450.43 C 58.53 445.85 53.11 440.78 46.04 440.00 C 33.05 438.37 20.46 432.24 12.08 422.02 C 4.93 413.56 0.85 402.70 0.00 391.70 L 0.00 381.55 C 0.85 373.75 3.10 366.05 7.05 359.25 C 13.52 347.93 24.57 339.34 37.17 335.96 C 40.58 335.13 44.75 333.83 45.55 329.88 C 45.99 325.30 45.99 320.68 46.47 316.10 C 50.09 271.63 74.68 229.68 111.12 204.11 C 137.10 185.51 169.05 175.46 201.00 175.75 C 216.69 175.79 232.66 174.13 248.13 177.56 C 261.30 181.31 273.75 187.27 286.99 190.82 C 299.50 193.97 311.98 189.37 324.12 186.76 C 285.28 176.55 248.20 157.79 219.05 129.92 C 203.71 115.59 190.76 98.84 179.92 80.89 C 178.47 78.65 177.42 75.54 179.09 73.14 C 180.83 70.58 184.10 69.96 187.00 70.01 C 199.44 69.99 211.89 70.03 224.35 70.01 C 218.89 64.91 213.76 59.35 209.79 53.01 M 437.40 179.53 C 434.12 180.42 431.26 182.83 430.08 186.05 C 427.19 192.35 431.99 200.45 438.87 200.98 C 445.63 202.17 452.24 195.82 451.09 189.01 C 450.74 182.50 443.61 177.70 437.40 179.53 Z" /></g></svg>