<?xml version="1.0" encoding="UTF-8" ?><!DOCTYPE svg PUBLIC "-//W3C//DTD SVG 1.1//EN" "http://www.w3.org/Graphics/SVG/1.1/DTD/svg11.dtd"><svg width="800pt" height="381pt" viewBox="0 0 800 381" version="1.1" xmlns="http://www.w3.org/2000/svg"><g id="#ef5da2ff"><path fill="#ef5da2" opacity="1.00" d=" M 370.85 0.00 L 373.13 0.00 C 376.41 0.37 379.99 1.06 382.37 3.54 C 386.13 8.29 387.30 14.86 385.45 20.64 C 382.92 16.86 380.94 12.65 377.55 9.54 C 374.19 6.02 369.83 3.80 365.67 1.40 C 367.38 0.87 369.10 0.38 370.85 0.00 Z"/><path fill="#ef5da2" opacity="1.00" d=" M 345.15 5.10 C 349.41 3.86 353.87 5.49 357.20 8.20 C 347.96 8.24 339.36 11.96 330.41 13.72 C 333.02 8.03 339.63 6.45 345.15 5.10 Z"/><path fill="#ef5da2" opacity="1.00" d=" M 364.84 12.98 C 367.90 14.86 369.75 19.13 368.29 22.53 C 365.93 25.84 362.60 28.54 358.70 29.78 C 355.46 30.81 351.76 32.37 348.46 30.72 C 345.58 29.49 344.45 26.37 343.35 23.70 C 347.55 24.94 352.34 26.68 356.50 24.36 C 361.01 22.19 363.18 17.41 364.84 12.98 Z"/><path fill="#ef5da2" opacity="1.00" d=" M 390.59 26.59 C 392.62 22.27 392.80 17.40 394.45 12.96 C 397.36 14.73 400.63 16.43 402.45 19.44 C 404.46 23.94 404.31 29.45 401.78 33.73 C 394.52 46.86 378.63 52.32 371.85 65.81 C 369.42 69.91 368.54 74.61 367.88 79.26 C 365.55 73.64 365.89 67.14 368.83 61.82 C 375.45 49.69 384.92 39.26 390.59 26.59 Z"/><path fill="#ef5da2" opacity="1.00" d=" M 313.39 38.64 C 309.27 29.82 314.07 18.79 322.91 15.12 C 321.47 19.58 319.89 24.17 320.46 28.93 C 320.86 35.10 324.16 40.48 326.92 45.85 C 321.64 45.89 315.45 44.03 313.39 38.64 Z"/><path fill="#ef5da2" opacity="1.00" d=" M 359.27 40.23 C 366.82 35.52 372.67 28.73 378.94 22.54 C 378.99 31.21 375.38 40.04 367.97 44.92 C 359.29 49.87 349.14 52.78 339.11 51.16 C 345.80 47.47 352.99 44.67 359.27 40.23 Z"/><path fill="#ef5da2" opacity="1.00" d=" M 335.09 41.53 C 328.18 38.37 327.62 28.20 332.66 23.09 C 333.97 25.78 334.98 28.76 337.28 30.80 C 341.23 34.62 346.52 36.49 351.70 37.95 C 346.49 40.08 340.82 42.63 335.09 41.53 Z"/><path fill="#ef5da2" opacity="1.00" d=" M 305.44 56.06 C 304.56 52.04 307.20 48.56 309.82 45.85 C 312.35 49.00 315.02 52.24 318.77 53.98 C 327.18 58.09 336.63 59.03 345.49 61.77 C 350.07 63.23 355.00 64.75 358.14 68.66 C 344.44 64.48 329.74 68.48 315.95 64.85 C 311.65 63.37 306.28 61.08 305.44 56.06 Z"/><path fill="#ef5da2" opacity="1.00" d=" M 385.20 61.17 C 390.22 56.31 395.28 51.21 401.52 47.92 C 403.07 53.35 403.46 59.60 400.72 64.73 C 396.05 74.33 387.24 81.45 377.51 85.52 C 375.11 76.80 378.80 67.27 385.20 61.17 Z"/><path fill="#ef5da2" opacity="1.00" d=" M 320.14 74.45 C 330.65 75.97 341.31 75.48 351.84 76.61 C 358.55 77.68 362.95 83.35 365.79 89.07 C 357.59 91.78 348.47 92.94 340.19 89.90 C 331.98 87.27 324.50 82.01 320.14 74.45 Z"/></g><g id="#3eb649ff"><path fill="#3eb649" opacity="1.00" d=" M 409.39 78.47 C 422.98 62.22 435.93 45.07 444.51 25.58 C 444.72 34.13 441.44 42.31 438.42 50.17 C 433.46 62.82 426.16 74.34 418.65 85.59 C 416.37 89.01 413.39 92.01 411.88 95.89 C 415.61 92.63 418.61 88.66 421.82 84.92 C 429.80 74.99 437.80 64.87 443.41 53.36 C 445.54 49.26 446.25 44.65 447.87 40.36 C 450.34 47.69 448.16 55.70 446.35 63.00 C 443.72 74.15 437.58 84.49 428.59 91.67 C 425.65 94.04 422.34 95.92 419.49 98.41 C 406.84 110.35 395.50 123.67 385.90 138.19 C 384.09 138.45 382.18 139.31 380.46 138.31 C 367.15 132.51 352.95 129.18 338.79 126.23 C 334.25 125.18 329.58 125.35 324.98 124.89 C 311.27 124.59 298.24 117.94 288.83 108.16 C 284.79 103.71 280.44 99.21 278.29 93.48 C 282.25 96.26 285.68 99.75 289.95 102.08 C 302.72 109.17 316.76 113.56 330.79 117.41 C 334.07 118.34 337.37 119.29 340.79 119.54 C 336.42 117.05 331.51 115.79 326.88 113.91 C 306.56 106.15 286.80 95.53 271.86 79.42 C 273.58 79.75 275.26 80.30 276.72 81.31 C 291.47 90.41 307.95 96.14 324.40 101.30 C 333.53 104.26 343.06 106.01 351.76 110.18 C 363.39 115.45 375.73 121.72 382.43 133.12 C 383.66 126.65 384.27 120.00 386.78 113.85 C 391.88 100.71 399.95 88.87 409.39 78.47 Z"/></g><g id="#232b4dff"><path fill="#232b4d" opacity="1.00" d=" M 115.20 115.35 C 122.15 115.30 129.11 115.32 136.06 115.34 C 136.11 171.43 135.97 227.51 136.05 283.60 C 129.10 283.62 122.14 283.63 115.19 283.58 C 115.31 227.50 115.29 171.42 115.20 115.35 Z"/><path fill="#232b4d" opacity="1.00" d=" M 0.50 120.46 C 32.62 120.54 64.74 120.37 96.86 120.54 C 97.51 125.98 96.94 131.49 97.13 136.95 C 84.11 134.96 71.13 132.67 58.13 130.50 C 46.87 127.99 35.31 130.68 24.41 133.61 C 24.52 153.56 24.44 173.50 24.44 193.45 C 41.90 193.43 59.35 193.42 76.81 193.45 C 76.76 196.56 76.75 199.66 76.77 202.77 C 59.34 202.75 41.90 202.78 24.46 202.76 C 24.48 229.70 24.41 256.65 24.50 283.59 C 16.49 283.62 8.49 283.62 0.48 283.59 C 0.56 229.21 0.53 174.84 0.50 120.46 Z"/><path fill="#232b4d" opacity="1.00" d=" M 313.53 192.76 C 322.15 179.79 335.97 169.95 351.41 167.21 C 352.19 172.88 353.02 178.54 353.90 184.19 C 339.04 185.16 325.54 193.07 314.38 202.47 C 314.41 229.51 314.33 256.55 314.42 283.59 C 307.46 283.62 300.50 283.62 293.54 283.59 C 293.63 246.48 293.55 209.37 293.58 172.26 C 298.38 172.29 303.18 172.27 307.99 172.29 C 309.84 179.11 311.76 185.91 313.53 192.76 Z"/><path fill="#232b4d" opacity="1.00" d=" M 211.54 169.84 C 225.84 167.82 241.45 170.64 252.55 180.36 C 262.40 188.40 268.22 200.52 269.88 212.99 C 271.93 228.86 270.25 245.85 261.90 259.81 C 254.68 272.58 241.22 280.68 227.38 284.51 C 211.84 288.55 193.96 287.05 180.99 276.90 C 170.24 268.91 163.68 256.26 161.91 243.11 C 159.91 227.57 161.30 210.98 169.07 197.09 C 177.36 181.49 194.52 172.37 211.54 169.84 M 210.36 179.39 C 195.99 185.38 187.47 200.17 184.96 214.99 C 181.95 232.42 183.31 251.65 193.17 266.81 C 201.10 279.19 220.30 282.10 231.40 272.40 C 241.96 263.04 247.30 248.88 247.77 234.99 C 248.21 221.89 247.31 208.29 241.69 196.26 C 238.24 188.40 231.34 182.05 222.93 179.97 C 218.86 179.11 214.39 177.84 210.36 179.39 Z"/><path fill="#232b4d" opacity="1.00" d=" M 381.90 182.86 C 393.68 172.17 410.43 167.38 426.10 169.94 C 437.59 171.99 447.36 179.97 453.12 189.94 C 458.87 199.93 460.60 211.68 460.67 223.05 C 434.37 222.94 408.06 222.83 381.77 223.14 C 382.20 234.27 383.24 245.98 389.35 255.63 C 395.82 265.49 407.14 271.95 418.89 272.74 C 431.12 273.51 443.56 271.40 454.72 266.29 C 454.70 269.19 454.70 272.10 454.72 275.01 C 440.37 283.26 423.60 288.45 406.95 285.99 C 391.57 284.29 376.75 275.43 369.35 261.63 C 362.57 248.99 361.50 234.08 362.94 220.05 C 364.40 205.88 370.94 192.13 381.90 182.86 M 403.93 181.88 C 391.92 188.84 385.21 202.24 382.79 215.52 C 402.09 215.54 421.40 215.54 440.70 215.51 C 439.97 208.08 438.08 200.55 433.64 194.41 C 428.91 187.29 420.66 183.45 412.58 181.57 C 409.73 181.15 406.51 180.05 403.93 181.88 Z"/><path fill="#232b4d" opacity="1.00" d=" M 511.95 187.99 C 521.17 179.31 531.64 169.87 545.02 169.38 C 555.21 168.13 565.54 173.27 571.38 181.56 C 576.06 188.73 576.93 197.57 577.15 205.92 C 577.15 231.82 577.18 257.72 577.13 283.62 C 570.11 283.59 563.08 283.64 556.06 283.58 C 556.25 259.40 556.07 235.21 556.15 211.02 C 556.06 204.23 555.82 196.90 551.90 191.06 C 548.24 185.69 541.05 184.37 534.99 184.94 C 526.00 186.29 518.89 192.60 512.59 198.70 C 512.79 226.99 512.53 255.29 512.72 283.59 C 505.69 283.63 498.66 283.62 491.63 283.59 C 491.71 258.74 491.63 233.89 491.68 209.04 C 491.83 203.01 491.20 196.83 488.59 191.32 C 486.49 186.57 482.93 182.69 479.11 179.25 C 483.33 176.24 487.48 173.12 491.62 169.98 C 498.45 175.92 505.16 181.99 511.95 187.99 Z"/><path fill="#232b4d" opacity="1.00" d=" M 624.71 178.68 C 636.05 170.19 651.02 167.75 664.79 170.09 C 671.53 171.21 678.09 173.19 684.43 175.71 C 683.44 181.09 682.69 186.51 681.96 191.92 C 670.33 186.23 657.97 180.73 644.79 180.68 C 636.33 184.40 629.96 192.01 626.45 200.46 C 621.46 212.61 619.05 226.10 621.25 239.16 C 623.37 251.97 631.54 263.89 643.24 269.73 C 649.02 272.68 655.65 273.23 662.04 272.76 C 670.33 272.38 678.45 270.03 685.85 266.32 C 685.79 269.22 685.78 272.11 685.81 275.01 C 673.29 283.24 658.06 288.45 642.97 286.00 C 628.37 284.16 615.02 274.88 608.06 261.94 C 601.34 249.47 600.41 234.80 601.62 220.93 C 603.19 204.51 611.27 188.51 624.71 178.68 Z"/><path fill="#232b4d" opacity="1.00" d=" M 738.38 172.51 C 746.92 169.46 756.26 168.47 765.23 169.92 C 778.72 172.32 789.77 182.74 794.94 195.16 C 798.56 203.53 799.54 212.70 800.00 221.73 L 800.00 222.82 C 773.72 223.02 747.43 223.01 721.15 222.88 C 721.17 232.18 722.11 241.68 725.78 250.31 C 730.82 262.43 742.99 270.88 755.87 272.51 C 768.83 273.87 782.06 271.58 793.98 266.35 C 793.91 269.25 793.88 272.15 793.88 275.06 C 779.17 283.47 761.92 288.69 744.90 285.81 C 728.38 283.71 712.87 272.96 706.51 257.36 C 700.74 243.01 700.27 226.81 703.63 211.82 C 707.66 193.99 721.24 178.77 738.38 172.51 M 722.04 215.50 C 741.32 215.55 760.61 215.54 779.90 215.51 C 779.27 209.20 777.92 202.82 774.68 197.29 C 769.07 186.71 756.64 181.01 745.06 180.99 C 731.85 187.28 724.54 201.64 722.04 215.50 Z"/><path fill="#232b4d" opacity="1.00" d=" M 180.91 321.42 C 191.27 321.97 202.21 319.81 212.04 324.00 C 216.87 325.85 220.36 330.83 219.67 336.09 C 219.39 342.94 212.91 347.16 206.99 349.03 C 212.58 350.11 218.48 352.44 221.52 357.57 C 225.07 363.37 222.31 371.33 216.79 374.83 C 206.10 381.83 192.88 379.37 180.86 379.75 C 180.90 360.31 180.79 340.86 180.91 321.42 M 189.45 326.40 C 189.56 333.65 189.48 340.90 189.50 348.15 C 194.26 348.10 199.22 348.52 203.77 346.82 C 209.23 344.78 211.91 338.10 210.35 332.67 C 209.04 328.54 205.13 325.71 201.05 324.70 C 197.11 324.36 193.22 325.40 189.45 326.40 M 189.48 350.67 C 189.56 359.13 189.42 367.59 189.57 376.05 C 196.31 376.97 204.13 377.54 209.57 372.64 C 214.97 368.27 214.19 359.26 208.88 355.15 C 203.63 350.33 196.14 350.48 189.48 350.67 Z"/><path fill="#232b4d" opacity="1.00" d=" M 341.59 322.52 C 350.67 319.19 360.71 320.05 369.79 322.91 C 369.51 324.94 369.24 326.97 368.97 329.00 C 362.41 326.35 355.54 323.38 348.30 324.27 C 340.15 325.99 333.57 332.66 331.36 340.61 C 329.40 347.61 329.48 355.24 331.65 362.19 C 334.07 369.89 340.98 375.90 348.96 377.20 C 356.53 378.37 364.86 377.69 371.25 373.08 C 371.26 374.25 371.28 376.58 371.29 377.74 C 363.31 380.90 354.49 381.30 346.05 380.32 C 335.73 378.81 325.19 372.44 322.00 362.02 C 319.24 352.71 320.34 342.01 325.87 333.89 C 329.54 328.37 335.50 324.81 341.59 322.52 Z"/><path fill="#232b4d" opacity="1.00" d=" M 238.42 323.44 C 240.81 322.43 243.78 323.63 244.64 326.12 C 246.10 329.66 241.63 333.96 238.26 331.76 C 234.86 330.22 234.98 324.87 238.42 323.44 Z"/><path fill="#232b4d" opacity="1.00" d=" M 604.36 323.41 C 607.09 322.24 610.49 324.13 610.79 327.11 C 611.30 330.78 606.48 334.05 603.50 331.37 C 600.64 329.43 601.21 324.72 604.36 323.41 Z"/><path fill="#232b4d" opacity="1.00" d=" M 268.53 339.69 C 274.42 338.00 281.31 338.69 286.10 342.76 C 290.33 346.17 292.40 351.62 292.62 356.94 C 293.02 363.09 291.51 369.67 287.26 374.32 C 281.90 379.84 273.49 382.06 266.07 380.11 C 260.02 378.47 255.37 373.10 254.15 367.02 C 252.87 360.64 253.38 353.59 256.87 347.96 C 259.40 343.73 263.90 341.06 268.53 339.69 M 271.39 342.44 C 265.12 344.81 262.10 351.77 261.68 358.06 C 261.26 363.49 261.96 369.31 265.12 373.89 C 267.95 378.22 274.82 379.17 278.65 375.66 C 282.79 372.02 284.53 366.35 284.54 360.98 C 284.54 356.31 283.99 351.42 281.61 347.30 C 279.66 343.77 275.33 341.82 271.39 342.44 Z"/><path fill="#232b4d" opacity="1.00" d=" M 392.39 339.57 C 397.65 338.20 403.60 338.62 408.17 341.76 C 412.61 344.62 415.24 349.70 415.81 354.86 C 416.73 361.53 415.44 368.86 410.93 374.05 C 405.73 379.67 397.41 381.94 390.00 380.26 C 384.17 378.81 379.41 374.00 377.87 368.22 C 376.22 362.04 376.60 355.20 379.45 349.42 C 381.92 344.33 387.05 341.01 392.39 339.57 M 394.51 342.53 C 389.20 344.79 386.10 350.40 385.37 355.93 C 384.62 362.11 384.93 368.96 388.74 374.17 C 391.78 378.40 398.66 379.08 402.40 375.42 C 405.71 372.20 407.58 367.62 407.78 363.02 C 408.02 357.63 407.79 351.85 404.90 347.12 C 402.83 343.67 398.45 341.64 394.51 342.53 Z"/><path fill="#232b4d" opacity="1.00" d=" M 428.03 339.94 C 434.01 337.67 440.57 339.24 446.48 340.99 C 446.19 342.99 445.89 344.98 445.59 346.98 C 441.58 345.06 437.48 343.01 432.99 342.58 C 428.99 342.90 426.77 348.47 429.58 351.41 C 434.51 357.06 443.36 357.96 447.18 364.80 C 450.14 369.91 447.19 376.68 442.05 379.04 C 435.45 382.10 427.63 380.92 421.22 377.91 C 421.13 377.01 420.94 375.21 420.85 374.31 C 425.79 376.46 431.42 378.42 436.78 376.57 C 440.25 375.46 442.57 370.98 440.23 367.79 C 435.85 361.89 427.13 361.14 423.29 354.65 C 419.95 349.58 422.48 342.18 428.03 339.94 Z"/><path fill="#232b4d" opacity="1.00" d=" M 466.42 345.49 C 471.09 341.76 476.76 337.45 483.13 339.20 C 486.55 339.77 488.57 342.81 489.77 345.79 C 494.18 341.05 501.12 337.40 507.65 339.49 C 512.60 341.41 513.94 347.29 514.21 352.04 C 514.49 361.28 514.23 370.54 514.33 379.79 C 511.82 379.78 509.31 379.78 506.81 379.78 C 506.76 370.51 506.91 361.23 506.76 351.96 C 506.67 349.08 505.97 345.18 502.67 344.43 C 498.07 343.28 493.75 345.90 490.54 348.93 C 490.64 359.21 490.51 369.49 490.61 379.77 C 488.09 379.77 485.57 379.77 483.05 379.75 C 483.16 371.15 483.12 362.56 483.11 353.96 C 482.94 350.64 482.92 346.35 479.55 344.57 C 474.78 343.10 470.36 346.32 466.77 349.07 C 466.81 359.30 466.71 369.53 466.83 379.76 C 464.34 379.77 461.85 379.77 459.36 379.77 C 459.38 370.18 459.51 360.60 459.33 351.02 C 459.30 347.59 457.18 344.80 455.04 342.34 C 456.46 341.26 457.88 340.17 459.29 339.08 C 461.69 341.19 464.07 343.32 466.42 345.49 Z"/><path fill="#232b4d" opacity="1.00" d=" M 527.97 345.96 C 533.36 339.29 544.15 336.21 551.45 341.53 C 556.70 345.31 558.19 352.06 558.43 358.16 C 548.98 358.18 539.53 358.14 530.08 358.18 C 530.35 363.32 531.09 369.17 535.41 372.59 C 541.23 377.56 549.72 376.19 556.29 373.60 C 556.25 374.41 556.18 376.02 556.15 376.83 C 550.92 379.59 545.01 381.50 539.04 380.60 C 532.12 379.97 525.81 374.85 524.14 368.05 C 522.32 360.66 522.89 351.99 527.97 345.96 M 538.29 343.27 C 533.75 345.68 531.58 350.70 530.34 355.44 C 537.35 355.47 544.37 355.48 551.38 355.43 C 550.58 351.87 549.63 347.89 546.47 345.65 C 544.12 344.03 541.18 342.73 538.29 343.27 Z"/><path fill="#232b4d" opacity="1.00" d=" M 572.83 339.60 C 578.60 337.86 584.71 339.32 590.34 340.98 C 590.05 342.98 589.76 344.98 589.49 346.99 C 585.49 345.07 581.41 343.04 576.95 342.58 C 572.88 342.80 570.58 348.55 573.52 351.47 C 578.47 357.08 587.32 358.00 591.10 364.87 C 594.28 370.51 590.39 377.76 584.55 379.67 C 578.30 381.67 571.07 381.08 565.34 377.81 C 565.14 376.93 564.75 375.17 564.56 374.29 C 569.78 376.46 575.81 378.66 581.36 376.28 C 584.73 374.86 586.19 370.25 583.80 367.34 C 579.09 361.75 570.41 360.83 566.84 354.06 C 563.76 348.70 567.01 341.32 572.83 339.60 Z"/><path fill="#232b4d" opacity="1.00" d=" M 236.65 339.88 C 239.07 339.86 241.50 339.85 243.92 339.84 C 244.34 353.15 243.99 366.46 244.11 379.77 C 241.60 379.77 239.09 379.76 236.58 379.71 C 236.72 366.43 236.59 353.15 236.65 339.88 Z"/><path fill="#232b4d" opacity="1.00" d=" M 602.57 339.86 C 604.99 339.86 607.41 339.86 609.84 339.87 C 609.91 353.16 609.77 366.45 609.92 379.74 C 607.47 379.77 605.02 379.79 602.58 379.82 C 602.54 366.50 602.56 353.18 602.57 339.86 Z"/></g><g id="#f47933ff"><path fill="#f47933" opacity="1.00" d=" M 9.81 370.18 C 12.72 365.84 15.86 361.13 20.74 358.86 C 60.42 358.66 100.11 358.87 139.80 358.76 C 135.55 362.97 131.30 367.55 125.77 370.05 C 87.13 370.34 48.46 370.07 9.81 370.18 Z"/><path fill="#f47933" opacity="1.00" d=" M 647.99 369.85 C 650.93 365.62 654.02 360.94 658.84 358.72 C 698.53 358.53 738.23 358.67 777.93 358.65 C 774.02 362.50 770.11 366.48 765.33 369.26 C 764.05 370.08 762.45 369.81 761.04 369.90 C 723.35 369.83 685.67 369.93 647.99 369.85 Z"/></g></svg>