<?xml version="1.0" encoding="UTF-8" ?><!DOCTYPE svg PUBLIC "-//W3C//DTD SVG 1.1//EN" "http://www.w3.org/Graphics/SVG/1.1/DTD/svg11.dtd"><svg width="512pt" height="118pt" viewBox="0 0 512 118" version="1.1" xmlns="http://www.w3.org/2000/svg"><g id="#2b2847ff"><path fill="#2b2847" opacity="1.00" d=" M 380.67 10.20 C 396.58 6.79 412.50 3.43 428.41 0.02 C 428.41 3.49 428.41 6.96 428.42 10.42 C 412.51 10.23 396.56 10.74 380.67 10.20 Z" /><path fill="#2b2847" opacity="1.00" d=" M 444.45 25.46 C 451.45 19.51 460.93 17.20 469.97 17.37 C 479.11 17.63 487.46 22.08 494.68 27.35 C 496.15 24.98 497.63 22.60 499.15 20.25 C 501.72 20.26 504.30 20.26 506.88 20.25 C 506.93 32.27 506.89 44.30 506.89 56.32 C 503.69 56.34 500.48 56.33 497.28 56.27 C 495.36 47.50 491.52 38.36 483.63 33.39 C 476.38 28.85 467.10 28.62 459.04 30.83 C 452.50 32.47 450.02 40.70 452.52 46.42 C 454.43 50.33 458.70 52.15 462.57 53.50 C 475.61 57.69 490.20 58.19 501.73 66.28 C 508.60 70.92 512.02 79.25 512.00 87.37 L 512.00 89.61 C 511.65 96.71 509.41 104.07 504.08 109.03 C 497.56 115.39 488.21 117.37 479.42 118.00 L 473.81 118.00 C 464.26 117.08 455.31 112.78 448.04 106.63 C 447.14 109.51 446.14 112.37 445.10 115.20 C 442.02 115.21 438.94 115.21 435.87 115.20 C 435.85 102.25 435.88 89.31 435.85 76.37 C 439.20 76.35 442.55 76.35 445.91 76.37 C 446.80 84.20 449.27 92.30 455.13 97.87 C 462.45 104.86 473.31 106.64 483.04 105.44 C 488.69 104.72 494.71 101.06 495.57 95.00 C 496.73 89.42 493.03 84.07 488.00 81.95 C 474.87 76.13 459.51 76.65 447.13 68.89 C 432.24 60.13 431.44 36.23 444.45 25.46 Z" /><path fill="#2b2847" opacity="1.00" d=" M 0.00 20.79 C 30.15 20.73 60.29 20.88 90.44 20.72 C 90.72 33.16 90.39 45.61 90.61 58.05 C 87.23 58.18 83.85 58.23 80.46 58.17 C 79.30 51.20 79.40 43.58 75.40 37.46 C 72.23 32.75 66.20 31.52 60.89 31.34 C 52.00 31.21 43.10 31.34 34.20 31.28 C 34.21 41.08 34.21 50.88 34.20 60.67 C 39.23 60.41 45.05 61.78 49.32 58.35 C 53.45 54.52 53.26 48.36 53.45 43.17 C 56.80 43.21 60.14 43.21 63.49 43.15 C 63.52 58.91 63.52 74.67 63.49 90.42 C 60.13 90.39 56.77 90.39 53.41 90.40 C 53.28 84.90 53.76 78.57 49.92 74.11 C 45.82 69.91 39.45 71.50 34.21 71.18 C 34.21 82.18 34.18 93.17 34.23 104.16 C 43.16 104.13 52.09 104.19 61.03 104.15 C 66.04 104.20 71.49 102.76 74.51 98.46 C 79.34 91.63 79.58 82.91 80.50 74.90 C 83.87 74.82 87.24 74.88 90.60 75.04 C 90.47 88.20 90.58 101.37 90.54 114.53 C 60.36 114.49 30.18 114.52 0.00 114.52 L 0.00 104.17 C 3.80 104.03 7.76 104.64 11.44 103.44 C 14.62 102.06 14.81 98.07 14.87 95.08 C 14.90 76.39 14.87 57.69 14.88 38.99 C 14.93 36.44 14.62 33.16 11.86 32.08 C 8.06 30.77 3.94 31.44 0.00 31.29 L 0.00 20.79 Z" /><path fill="#2b2847" opacity="1.00" d=" M 97.54 31.33 C 97.48 27.80 97.46 24.27 97.59 20.75 C 114.55 20.82 131.52 20.78 148.48 20.77 C 148.51 24.29 148.51 27.80 148.49 31.32 C 144.36 31.44 140.15 30.87 136.08 31.75 C 133.28 32.35 132.26 35.39 132.48 37.94 C 132.53 60.06 132.40 82.19 132.54 104.32 C 140.37 104.19 148.21 104.34 156.04 104.24 C 160.98 104.17 166.44 102.60 169.17 98.15 C 173.61 91.03 173.43 82.31 174.36 74.26 C 177.76 74.29 181.16 74.29 184.56 74.25 C 184.57 87.68 184.57 101.11 184.57 114.54 C 155.54 114.49 126.52 114.51 97.50 114.53 C 97.51 111.09 97.52 107.64 97.45 104.20 C 101.69 103.85 106.14 104.86 110.22 103.35 C 112.74 102.32 113.00 99.36 112.91 97.01 C 112.87 76.97 112.98 56.94 112.87 36.90 C 113.22 34.27 111.23 31.82 108.61 31.53 C 104.94 31.05 101.23 31.36 97.54 31.33 Z" /><path fill="#2b2847" opacity="1.00" d=" M 212.48 20.77 C 229.33 20.80 246.18 20.78 263.03 20.78 C 272.30 20.63 282.29 21.46 290.06 27.04 C 303.12 36.09 302.75 58.75 289.15 67.12 C 282.89 71.09 275.28 72.05 268.01 72.16 C 260.90 72.15 253.80 72.17 246.69 72.13 C 246.69 81.09 246.65 90.05 246.69 99.01 C 246.55 101.17 248.17 103.14 250.24 103.63 C 254.18 104.64 258.31 103.93 262.33 104.20 C 262.25 107.64 262.25 111.08 262.28 114.52 C 245.69 114.53 229.09 114.45 212.49 114.57 C 212.45 111.08 212.46 107.60 212.46 104.12 C 216.50 103.94 220.70 104.73 224.63 103.50 C 226.94 102.77 227.47 100.10 227.32 97.97 C 227.26 77.34 227.36 56.71 227.27 36.08 C 227.59 33.62 225.30 31.54 222.96 31.40 C 219.47 31.13 215.97 31.35 212.48 31.32 C 212.45 27.80 212.45 24.29 212.48 20.77 M 246.59 31.40 C 246.75 41.46 246.70 51.51 246.62 61.56 C 252.06 61.68 257.51 61.72 262.95 61.53 C 267.75 61.21 273.04 60.13 276.32 56.31 C 280.09 51.52 280.03 44.63 277.97 39.14 C 275.88 34.03 270.08 32.05 265.02 31.56 C 258.89 31.10 252.73 31.26 246.59 31.40 Z" /><path fill="#2b2847" opacity="1.00" d=" M 295.86 97.90 C 305.05 72.27 313.57 46.40 322.70 20.75 C 328.96 20.78 335.22 20.88 341.48 20.68 C 351.26 46.15 359.98 72.03 369.58 97.58 C 370.82 100.68 373.69 103.05 377.03 103.54 C 381.82 104.28 386.83 104.62 391.59 103.48 C 393.59 103.07 394.72 101.00 394.59 99.07 C 394.65 78.69 394.61 58.32 394.61 37.94 C 394.83 35.37 393.58 32.57 390.98 31.75 C 387.47 30.90 383.81 31.37 380.24 31.39 C 380.01 27.86 380.09 24.32 380.13 20.79 C 396.22 20.78 412.31 20.79 428.40 20.78 C 428.42 24.29 428.42 27.80 428.42 31.30 C 424.49 31.51 420.14 30.52 416.57 32.62 C 414.30 33.83 413.58 36.57 413.71 38.96 C 413.75 58.32 413.70 77.68 413.73 97.04 C 413.70 99.59 414.63 102.74 417.36 103.56 C 420.94 104.62 424.74 104.01 428.43 104.14 C 428.41 107.60 428.41 111.07 428.42 114.53 C 397.53 114.42 366.64 114.66 335.75 114.41 C 335.82 111.00 335.81 107.58 335.79 104.17 C 340.70 103.55 346.42 105.51 350.80 102.84 C 350.62 96.43 347.42 90.53 345.79 84.40 C 335.43 84.46 325.08 84.31 314.72 84.47 C 313.21 90.04 310.96 95.40 309.75 101.04 C 309.32 102.46 310.69 103.73 312.01 103.88 C 316.22 104.47 320.49 104.04 324.73 104.11 C 324.76 107.59 324.76 111.06 324.74 114.53 C 310.56 114.51 296.38 114.48 282.20 114.55 C 282.15 111.08 282.15 107.61 282.20 104.15 C 287.28 104.08 293.78 103.43 295.86 97.90 M 329.77 39.82 C 326.04 51.17 322.52 62.59 318.75 73.93 C 326.46 73.94 334.18 73.90 341.89 73.98 C 337.78 62.62 334.14 51.07 329.77 39.82 Z" /></g></svg>