<?xml version="1.0" encoding="UTF-8" ?><!DOCTYPE svg PUBLIC "-//W3C//DTD SVG 1.1//EN" "http://www.w3.org/Graphics/SVG/1.1/DTD/svg11.dtd"><svg width="512pt" height="117pt" viewBox="0 0 512 117" version="1.1" xmlns="http://www.w3.org/2000/svg"><g id="#2b2847ff"><path fill="#2b2847" opacity="1.00" d=" M 13.05 10.99 C 24.51 -2.96 48.99 -3.73 60.59 10.42 C 67.16 18.34 69.11 28.79 70.24 38.72 C 63.73 39.87 57.26 41.21 50.79 42.56 C 50.16 36.48 49.39 30.13 46.18 24.80 C 43.19 20.11 36.47 19.74 31.81 21.87 C 27.57 24.69 26.22 30.12 25.49 34.88 C 24.25 46.99 24.09 59.19 24.52 71.35 C 24.99 78.20 24.97 85.45 28.39 91.62 C 31.40 97.91 41.27 98.59 45.76 93.66 C 49.74 88.14 49.90 80.96 50.20 74.42 C 45.50 74.44 40.79 74.45 36.08 74.45 C 36.08 68.17 36.08 61.89 36.08 55.61 C 47.51 55.60 58.95 55.65 70.38 55.59 C 70.39 75.55 70.39 95.51 70.38 115.47 C 67.03 115.44 63.68 115.44 60.33 115.45 C 59.34 111.05 58.52 106.60 57.41 102.22 C 55.69 105.45 54.07 108.84 51.39 111.41 C 48.37 114.41 44.30 116.07 40.21 117.00 L 29.93 117.00 C 23.04 115.88 16.38 112.57 11.93 107.09 C 5.11 98.98 2.73 88.29 1.19 78.07 C -0.22 66.79 -0.23 55.32 1.02 44.01 C 2.61 32.38 5.29 20.20 13.05 10.99 Z" /><path fill="#2b2847" opacity="1.00" d=" M 321.92 2.93 C 331.85 -1.19 343.86 -0.78 353.12 4.85 C 360.54 9.55 364.78 17.71 367.28 25.88 C 370.35 37.30 371.29 49.18 371.22 60.97 C 371.10 71.77 370.09 82.65 367.05 93.05 C 364.99 99.06 362.11 105.02 357.38 109.39 C 352.97 113.61 347.07 115.83 341.19 117.00 L 332.41 117.00 C 324.38 116.72 316.31 113.05 311.31 106.67 C 306.47 100.10 303.78 92.15 302.34 84.19 C 299.74 70.96 299.65 57.35 300.57 43.94 C 301.48 35.52 302.72 26.96 306.26 19.19 C 309.33 12.16 314.69 5.83 321.92 2.93 M 332.17 21.27 C 327.91 23.44 326.79 28.63 325.95 32.92 C 324.30 45.19 324.75 57.61 324.76 69.96 C 325.12 77.58 325.27 85.50 328.35 92.61 C 330.69 97.54 337.90 98.02 341.87 94.85 C 345.22 90.32 345.46 84.44 345.88 79.05 C 346.46 67.37 346.26 55.66 346.17 43.97 C 345.86 37.36 345.79 30.37 342.58 24.39 C 340.79 20.64 335.73 19.92 332.17 21.27 Z" /><path fill="#2b2847" opacity="1.00" d=" M 74.14 2.05 C 81.87 2.11 89.61 2.19 97.34 2.01 C 97.47 32.87 97.28 63.72 97.44 94.57 C 107.02 94.46 116.61 94.44 126.19 94.57 C 126.11 101.53 126.18 108.49 126.15 115.45 C 108.80 115.43 91.44 115.45 74.09 115.44 C 74.15 77.64 74.05 39.85 74.14 2.05 Z" /><path fill="#2b2847" opacity="1.00" d=" M 155.00 2.10 C 163.06 2.05 171.11 2.22 179.17 2.01 C 187.73 39.83 196.14 77.68 204.96 115.43 C 197.04 115.43 189.12 115.46 181.20 115.42 C 179.98 107.22 178.18 99.12 176.59 90.99 C 169.19 91.08 161.79 90.83 154.40 91.01 C 152.61 99.09 151.41 107.28 149.93 115.41 C 142.94 115.48 135.94 115.41 128.95 115.45 C 137.55 77.65 146.15 39.85 155.00 2.10 M 156.61 72.58 C 162.41 72.56 168.20 72.53 174.00 72.60 C 171.33 56.46 166.49 40.69 165.25 24.33 C 163.49 40.59 159.74 56.55 156.61 72.58 Z" /><path fill="#2b2847" opacity="1.00" d=" M 206.60 2.01 C 217.27 2.23 227.95 2.05 238.62 2.10 C 240.85 12.66 242.33 23.35 244.55 33.91 C 245.77 43.51 248.56 52.87 249.19 62.55 C 250.05 68.72 249.95 74.98 250.98 81.13 C 252.21 73.29 252.17 65.30 253.77 57.51 C 257.17 38.93 261.41 20.53 265.38 2.08 C 275.80 2.13 286.21 2.12 296.62 2.08 C 296.55 39.90 296.75 77.72 296.52 115.54 C 289.16 115.39 281.79 115.34 274.43 115.57 C 274.04 102.06 274.37 88.53 274.26 75.01 C 274.40 61.03 273.87 47.02 274.83 33.06 C 274.86 28.30 275.75 23.55 275.12 18.80 C 273.67 30.61 272.08 42.41 269.83 54.10 C 265.35 74.51 261.29 95.00 256.86 115.41 C 251.91 115.46 246.97 115.46 242.02 115.41 C 241.08 107.46 238.68 99.79 237.55 91.87 C 234.81 78.57 232.19 65.25 229.59 51.92 C 226.90 40.76 226.51 29.23 224.65 17.94 C 224.39 24.30 224.84 30.66 225.05 37.02 C 225.51 63.16 225.15 89.32 225.25 115.47 C 219.03 115.43 212.81 115.40 206.59 115.49 C 206.54 77.66 206.54 39.84 206.60 2.01 Z" /><path fill="#2b2847" opacity="1.00" d=" M 374.93 2.11 C 382.76 2.06 390.59 2.19 398.41 2.03 C 398.49 27.37 398.39 52.70 398.46 78.04 C 398.63 82.74 398.81 87.72 400.97 92.00 C 403.69 96.69 410.02 97.02 414.68 95.53 C 418.00 94.32 419.52 90.76 420.29 87.57 C 421.46 82.12 421.23 76.51 421.27 70.97 C 421.28 48.00 421.22 25.02 421.30 2.04 C 427.80 2.14 434.30 2.14 440.80 2.04 C 440.89 22.69 440.82 43.34 440.84 63.98 C 440.78 74.18 441.28 84.47 439.32 94.54 C 437.95 100.01 435.70 105.51 431.55 109.48 C 426.29 114.56 418.81 116.88 411.60 117.00 L 404.41 117.00 C 395.87 116.82 386.62 113.76 381.64 106.41 C 375.99 97.78 375.23 87.03 374.95 77.01 C 374.89 52.04 374.93 27.08 374.93 2.11 Z" /><path fill="#2b2847" opacity="1.00" d=" M 444.59 2.03 C 457.32 2.30 470.07 1.84 482.80 2.29 C 489.52 2.56 496.53 4.59 500.94 9.99 C 510.05 19.91 510.87 34.53 508.52 47.16 C 507.14 55.26 501.98 62.44 494.82 66.44 C 500.77 82.42 505.84 98.73 512.00 114.64 L 512.00 115.44 C 503.83 115.47 495.66 115.36 487.49 115.51 C 483.30 100.62 478.85 85.80 474.78 70.87 C 472.36 70.87 469.93 70.86 467.51 70.86 C 467.47 85.74 467.55 100.61 467.47 115.49 C 459.83 115.40 452.20 115.42 444.56 115.48 C 444.58 77.66 444.53 39.85 444.59 2.03 M 467.51 19.89 C 467.49 30.67 467.49 41.45 467.51 52.23 C 471.64 52.04 476.12 52.92 479.93 50.88 C 484.09 48.96 485.76 44.13 486.31 39.89 C 486.99 33.80 486.63 26.64 481.85 22.18 C 477.65 19.31 472.32 19.94 467.51 19.89 Z" /></g></svg>