<?xml version="1.0" encoding="UTF-8" ?><!DOCTYPE svg PUBLIC "-//W3C//DTD SVG 1.1//EN" "http://www.w3.org/Graphics/SVG/1.1/DTD/svg11.dtd"><svg width="512pt" height="93pt" viewBox="0 0 512 93" version="1.1" xmlns="http://www.w3.org/2000/svg"><g id="#2b2847ff"><path fill="#2b2847" opacity="1.00" d=" M 21.48 0.00 L 26.42 0.00 C 30.59 0.55 34.75 2.16 37.57 5.40 C 42.91 10.88 44.06 18.80 44.91 26.07 C 46.36 18.76 47.76 10.71 53.44 5.37 C 56.85 1.82 61.77 0.37 66.55 0.00 L 68.56 0.00 C 73.59 0.29 78.76 1.95 82.15 5.85 C 88.68 12.99 89.68 23.14 90.58 32.34 C 91.04 26.51 90.07 20.47 92.16 14.86 C 94.83 6.56 102.68 0.07 111.57 0.00 L 113.41 0.00 C 118.42 0.34 123.53 2.24 126.78 6.22 C 131.89 12.16 132.75 20.45 132.41 27.99 C 127.44 28.01 122.48 28.00 117.52 27.99 C 117.75 23.73 118.44 18.30 114.63 15.33 C 111.73 13.02 107.52 15.16 106.32 18.29 C 104.37 22.77 106.62 27.83 109.78 31.14 C 116.69 38.55 125.60 44.41 130.28 53.67 C 133.25 59.01 133.65 65.24 133.58 71.22 C 133.21 82.08 124.69 92.49 113.42 93.00 L 107.31 93.00 C 103.07 92.17 98.72 90.58 95.87 87.17 C 91.58 82.31 90.49 75.66 89.80 69.44 C 88.36 75.95 86.64 82.89 81.80 87.79 C 78.82 90.91 74.60 92.41 70.41 93.00 L 65.53 93.00 C 60.04 92.61 54.75 89.98 51.45 85.52 C 46.83 79.24 45.49 71.29 44.57 63.73 C 43.65 71.84 42.33 80.48 36.98 86.98 C 34.27 90.43 30.03 92.12 25.85 93.00 L 20.48 93.00 C 14.53 92.57 9.11 89.01 6.21 83.83 C 1.24 74.93 0.60 64.49 0.00 54.53 L 0.00 41.61 C 0.71 30.86 1.58 19.59 6.96 10.00 C 9.90 4.61 15.31 0.66 21.48 0.00 M 17.81 27.98 C 17.20 40.94 16.80 53.97 17.91 66.92 C 18.30 70.35 18.61 74.31 21.37 76.76 C 23.54 78.53 26.65 76.98 27.57 74.62 C 29.98 69.01 29.61 62.73 29.77 56.76 C 34.51 56.74 39.25 56.75 43.99 56.76 C 43.17 49.10 43.66 41.42 44.06 33.75 C 38.87 33.74 33.68 33.76 28.49 33.74 C 28.50 28.06 28.79 22.25 27.21 16.74 C 26.55 14.67 24.20 12.76 22.05 14.09 C 18.07 17.42 18.38 23.28 17.81 27.98 M 66.13 15.07 C 63.12 16.90 62.48 20.68 62.15 23.89 C 60.91 37.85 61.06 51.88 61.85 65.86 C 62.17 69.20 62.45 72.74 64.16 75.71 C 65.29 77.61 68.21 78.62 69.94 76.93 C 72.84 73.71 72.83 69.09 73.23 65.03 C 73.49 58.68 73.82 52.33 73.73 45.98 C 73.23 37.50 73.86 28.90 72.27 20.51 C 71.69 17.76 69.58 13.48 66.13 15.07 M 91.05 31.33 C 91.40 42.30 91.87 53.31 90.48 64.24 C 95.22 64.26 99.97 64.25 104.71 64.25 C 104.86 68.27 104.55 72.64 106.72 76.21 C 108.69 79.61 114.19 79.53 116.23 76.26 C 118.72 72.16 118.00 66.70 115.13 62.98 C 108.99 55.14 100.21 49.63 94.98 41.03 C 93.08 38.06 92.25 34.60 91.05 31.33 Z" /><path fill="#2b2847" opacity="1.00" d=" M 215.59 0.00 L 217.36 0.00 C 221.97 0.32 226.74 1.65 230.07 5.03 C 235.79 10.64 237.71 18.83 238.84 26.49 C 240.34 39.27 240.25 52.22 239.06 65.02 C 238.08 72.55 236.55 80.53 231.61 86.56 C 228.46 90.50 223.56 92.57 218.62 93.00 L 213.38 93.00 C 209.33 92.20 205.20 90.82 202.22 87.84 C 198.03 83.60 195.86 77.81 194.59 72.09 C 192.21 60.91 192.58 49.42 192.58 38.06 C 193.06 29.11 193.95 19.91 197.66 11.64 C 200.82 4.72 207.92 -0.04 215.59 0.00 M 214.38 15.42 C 211.42 17.42 211.27 21.41 210.83 24.60 C 209.67 38.96 209.64 53.43 210.79 67.79 C 211.20 71.19 211.55 75.33 214.70 77.39 C 216.75 78.56 219.38 77.17 220.00 74.99 C 222.89 67.69 222.07 59.64 222.26 51.96 C 222.74 43.94 222.35 35.91 221.87 27.91 C 221.40 24.10 221.64 19.88 219.33 16.60 C 218.31 14.99 215.97 13.97 214.38 15.42 Z" /><path fill="#2b2847" opacity="1.00" d=" M 307.44 0.00 L 309.40 0.00 C 316.56 0.03 323.07 4.37 326.27 10.69 C 330.31 18.81 331.30 28.06 331.69 37.01 C 331.96 51.01 332.56 65.51 327.90 78.94 C 325.49 86.51 318.65 92.76 310.48 93.00 L 306.43 93.00 C 299.41 92.66 292.95 88.35 289.98 81.99 C 283.69 68.93 284.77 54.06 284.25 39.99 C 283.13 43.59 281.90 47.39 278.96 49.96 C 273.31 55.38 264.92 55.96 257.50 55.63 C 257.49 67.50 257.52 79.38 257.48 91.25 C 251.91 91.25 246.33 91.26 240.76 91.24 C 240.75 61.41 240.75 31.59 240.76 1.76 C 247.84 1.77 254.92 1.69 262.00 1.77 C 267.86 1.88 274.15 3.19 278.52 7.38 C 283.85 12.26 284.99 19.83 285.61 26.66 C 286.79 19.48 288.25 11.83 293.24 6.23 C 296.79 2.17 302.17 0.29 307.44 0.00 M 306.33 15.40 C 303.64 17.39 303.21 21.02 302.80 24.09 C 301.77 38.86 301.63 53.71 302.81 68.47 C 303.31 71.80 303.79 76.10 307.28 77.68 C 310.32 78.58 312.30 75.35 312.80 72.80 C 314.85 63.00 314.41 52.90 314.50 42.95 C 314.14 34.97 314.44 26.85 312.57 19.04 C 311.93 16.49 309.02 13.25 306.33 15.40 M 257.62 16.47 C 257.37 24.68 257.55 32.90 257.51 41.11 C 260.92 40.77 265.08 40.36 266.90 36.97 C 269.43 31.48 269.43 24.76 266.73 19.33 C 264.64 16.49 260.81 16.39 257.62 16.47 Z" /><path fill="#2b2847" opacity="1.00" d=" M 133.76 1.76 C 141.05 1.74 148.34 1.76 155.64 1.75 C 157.82 15.89 160.00 30.05 162.67 44.10 C 164.94 29.97 167.30 15.85 169.77 1.76 C 177.10 1.76 184.43 1.71 191.76 1.79 C 191.72 14.57 191.78 27.35 191.73 40.14 C 191.98 43.37 192.38 46.60 191.79 49.82 C 191.69 63.62 191.78 77.43 191.75 91.23 C 186.67 91.27 181.59 91.25 176.51 91.25 C 176.46 70.71 176.56 50.18 176.47 29.65 C 172.82 50.16 169.71 70.76 165.93 91.25 C 162.80 91.20 159.68 91.29 156.56 91.53 C 153.13 71.23 149.80 50.91 146.71 30.56 C 145.87 35.67 146.41 40.84 146.51 45.98 C 146.48 61.07 146.52 76.16 146.49 91.25 C 142.24 91.25 138.00 91.25 133.76 91.24 C 133.79 83.15 133.41 75.03 134.59 66.99 C 135.27 64.24 133.66 61.74 133.73 59.02 C 133.78 39.93 133.73 20.84 133.76 1.76 Z" /><path fill="#2b2847" opacity="1.00" d=" M 332.52 91.25 C 332.82 61.42 332.95 31.57 332.51 1.75 C 338.17 1.75 343.83 1.75 349.48 1.75 C 349.53 26.66 349.48 51.58 349.51 76.50 C 356.33 76.50 363.15 76.51 369.97 76.48 C 370.03 81.40 369.99 86.32 370.00 91.25 C 357.50 91.25 345.01 91.25 332.52 91.25 Z" /><path fill="#2b2847" opacity="1.00" d=" M 371.76 1.76 C 377.42 1.75 383.08 1.74 388.75 1.76 C 388.75 28.20 388.75 54.64 388.75 81.08 C 388.77 84.52 388.83 87.98 388.50 91.41 C 382.92 91.10 377.34 91.31 371.76 91.24 C 371.75 61.41 371.74 31.58 371.76 1.76 Z" /><path fill="#2b2847" opacity="1.00" d=" M 390.01 1.75 C 404.51 1.74 419.01 1.76 433.51 1.74 C 433.11 6.74 433.28 11.75 433.23 16.75 C 428.90 16.75 424.57 16.74 420.25 16.76 C 420.25 41.59 420.26 66.41 420.24 91.24 C 414.61 91.32 408.97 91.02 403.36 91.61 C 403.10 66.66 403.33 41.71 403.25 16.76 C 398.83 16.74 394.42 16.75 390.01 16.76 C 389.99 11.75 390.00 6.75 390.01 1.75 Z" /><path fill="#2b2847" opacity="1.00" d=" M 423.63 91.26 C 427.66 61.42 431.94 31.61 435.84 1.75 C 443.28 1.75 450.72 1.74 458.15 1.76 C 461.73 29.65 464.99 57.58 468.52 85.47 C 468.81 78.66 468.83 71.85 468.51 65.04 C 468.49 43.95 468.50 22.85 468.51 1.76 C 473.70 1.74 478.88 1.75 484.08 1.76 C 488.86 17.06 494.65 32.06 498.44 47.67 C 498.59 32.36 498.45 17.06 498.51 1.76 C 503.00 1.75 507.50 1.75 512.00 1.75 L 512.00 91.25 C 507.65 91.25 503.31 91.25 498.96 91.25 C 493.40 74.17 486.80 57.43 482.13 40.07 C 482.33 57.12 482.24 74.18 482.24 91.24 C 472.87 91.24 463.50 91.28 454.13 91.22 C 453.22 84.90 452.55 78.56 451.60 72.25 C 447.61 72.25 443.62 72.25 439.64 72.26 C 438.93 78.67 438.28 85.08 437.41 91.46 C 432.82 91.16 428.22 91.23 423.63 91.26 M 445.72 19.95 C 443.85 32.34 442.86 44.83 441.24 57.25 C 444.16 57.25 447.08 57.25 450.01 57.25 C 448.45 44.83 447.25 32.37 445.72 19.95 Z" /></g></svg>