<?xml version="1.0" encoding="UTF-8" ?><!DOCTYPE svg PUBLIC "-//W3C//DTD SVG 1.1//EN" "http://www.w3.org/Graphics/SVG/1.1/DTD/svg11.dtd"><svg width="512pt" height="87pt" viewBox="0 0 512 87" version="1.1" xmlns="http://www.w3.org/2000/svg"><g id="#2b2847ff"><path fill="#2b2847" opacity="1.00" d=" M 185.33 1.13 C 190.89 -1.54 198.54 1.74 199.84 7.94 C 202.13 15.21 195.55 23.29 187.91 22.11 C 180.97 21.49 176.07 13.50 179.05 7.08 C 180.22 4.33 182.59 2.25 185.33 1.13 Z" /><path fill="#2b2847" opacity="1.00" d=" M 406.25 1.31 C 412.06 -1.92 419.93 1.69 421.48 8.09 C 423.65 14.75 418.03 22.16 411.04 21.88 C 405.37 22.43 400.07 17.75 399.91 12.06 C 399.58 7.61 402.31 3.27 406.25 1.31 Z" /><path fill="#2b2847" opacity="1.00" d=" M 324.05 14.14 C 329.77 11.36 335.20 8.03 340.91 5.23 C 341.51 32.01 340.95 58.80 341.21 85.59 C 334.95 85.72 328.69 85.58 322.43 85.68 C 322.39 64.13 322.60 42.59 322.32 21.05 C 322.53 18.74 321.16 15.19 324.05 14.14 Z" /><path fill="#2b2847" opacity="1.00" d=" M 141.60 33.70 C 147.61 30.23 153.80 27.03 159.82 23.54 C 160.36 27.20 160.10 30.90 159.79 34.57 C 162.16 30.84 164.58 26.74 168.81 24.88 C 171.84 23.25 175.35 23.66 178.63 24.02 C 178.02 28.94 176.61 33.71 175.48 38.53 C 171.29 38.27 166.46 38.04 163.17 41.15 C 159.56 45.14 159.99 50.97 159.82 55.98 C 160.32 65.90 160.06 75.82 160.14 85.74 C 153.89 85.80 147.64 85.71 141.39 85.82 C 141.53 68.45 141.09 51.04 141.60 33.70 Z" /><path fill="#2b2847" opacity="1.00" d=" M 285.43 32.48 C 292.90 23.29 306.98 21.40 317.28 26.63 C 317.21 29.98 317.21 33.32 317.26 36.67 C 313.52 34.96 309.34 32.55 305.13 34.18 C 299.46 36.18 297.36 42.56 296.60 47.97 C 295.94 54.29 295.81 60.91 297.98 66.98 C 299.43 71.22 303.10 74.35 307.16 76.02 C 310.83 77.25 314.65 75.77 318.25 74.98 C 318.25 78.11 318.25 81.24 318.28 84.36 C 310.28 86.91 301.21 88.44 293.32 84.71 C 284.90 81.00 279.70 72.32 278.27 63.47 C 276.49 52.81 278.39 40.96 285.43 32.48 Z" /><path fill="#2b2847" opacity="1.00" d=" M 401.63 33.86 C 407.96 30.37 414.36 26.99 420.73 23.55 C 420.70 44.26 420.76 64.97 420.70 85.68 C 414.35 85.62 408.00 85.60 401.65 85.69 C 401.64 68.41 401.70 51.13 401.63 33.86 Z" /><path fill="#2b2847" opacity="1.00" d=" M 426.43 33.55 C 432.68 30.27 438.85 26.83 445.05 23.45 C 445.17 27.06 445.17 30.67 445.16 34.28 C 447.20 30.51 449.70 26.67 453.77 24.86 C 456.82 23.23 460.35 23.67 463.65 24.01 C 462.95 28.93 461.52 33.69 460.48 38.54 C 456.10 38.31 450.80 37.95 447.62 41.61 C 444.93 45.10 445.18 49.78 444.99 53.95 C 445.30 64.55 445.11 75.15 445.18 85.75 C 438.93 85.77 432.69 85.70 426.45 85.81 C 426.44 68.39 426.48 50.97 426.43 33.55 Z" /><path fill="#2b2847" opacity="1.00" d=" M 0.34 33.28 C 6.62 30.77 12.37 27.16 18.52 24.38 C 18.58 28.12 18.53 31.86 18.49 35.60 C 21.63 32.35 24.39 28.50 28.63 26.59 C 33.85 23.92 40.60 24.06 45.39 27.56 C 47.88 29.33 49.17 32.18 50.28 34.91 C 52.88 31.29 55.92 27.69 60.32 26.28 C 65.99 24.16 73.49 24.36 77.71 29.24 C 80.56 32.43 80.62 36.93 80.61 40.97 C 80.49 55.91 80.87 70.87 80.35 85.82 C 74.01 85.71 67.66 85.73 61.32 85.81 C 61.32 75.20 61.23 64.59 61.37 53.98 C 61.33 50.76 62.11 47.32 60.79 44.26 C 58.80 40.24 52.30 40.43 50.22 44.26 C 49.37 45.68 49.49 47.40 49.42 48.99 C 49.52 61.28 49.51 73.56 49.45 85.84 C 43.11 85.69 36.77 85.72 30.43 85.82 C 30.36 72.89 30.43 59.95 30.45 47.02 C 30.55 42.77 25.40 39.78 21.70 41.74 C 19.03 43.01 18.58 46.31 18.55 48.94 C 18.48 61.24 18.72 73.54 18.41 85.84 C 12.37 85.71 6.32 85.75 0.28 85.81 C 0.31 68.30 0.18 50.79 0.34 33.28 Z" /><path fill="#2b2847" opacity="1.00" d=" M 90.18 27.32 C 99.48 23.12 111.34 23.02 119.80 29.19 C 125.41 33.30 127.35 40.35 128.65 46.83 C 130.53 56.37 131.73 66.05 133.72 75.57 C 134.06 77.37 135.95 77.82 137.36 78.50 C 137.38 80.94 137.38 83.38 137.37 85.82 C 133.54 85.82 129.63 86.24 125.86 85.36 C 122.94 84.64 120.95 82.23 118.89 80.22 C 111.04 89.69 94.03 89.19 87.15 78.86 C 82.59 72.23 83.96 62.94 88.86 56.89 C 93.80 50.61 102.26 49.15 109.69 48.01 C 109.38 43.25 108.10 37.84 103.74 35.17 C 99.65 32.55 94.49 33.31 90.23 35.06 C 90.20 32.48 90.19 29.90 90.18 27.32 M 101.30 70.09 C 101.75 76.43 110.64 79.22 114.43 73.94 C 113.80 68.21 112.00 62.58 111.20 56.83 C 106.39 59.67 100.02 63.46 101.30 70.09 Z" /><path fill="#2b2847" opacity="1.00" d=" M 181.28 33.20 C 187.20 30.20 192.99 26.95 198.77 23.67 C 199.48 44.35 199.25 65.05 199.21 85.74 C 192.87 85.79 186.54 85.74 180.21 85.78 C 180.17 69.50 180.25 53.22 180.17 36.94 C 180.33 35.69 179.73 33.79 181.28 33.20 Z" /><path fill="#2b2847" opacity="1.00" d=" M 220.11 26.09 C 228.74 22.99 239.45 24.19 246.13 30.85 C 252.18 36.62 254.42 45.10 255.30 53.16 C 244.50 56.57 233.69 59.94 222.99 63.66 C 224.91 68.61 226.50 74.82 231.94 77.03 C 237.60 78.92 243.70 77.10 248.91 74.66 C 248.87 77.50 248.88 80.35 248.94 83.20 C 241.29 87.05 232.35 87.79 224.02 86.15 C 217.90 84.92 212.42 81.19 208.90 76.06 C 202.24 66.57 201.30 53.86 204.83 43.00 C 207.25 35.58 212.58 28.76 220.11 26.09 M 225.10 38.11 C 222.05 43.03 222.65 49.14 222.59 54.68 C 227.99 53.19 233.31 51.40 238.74 49.99 C 237.96 45.47 237.54 40.33 234.09 36.92 C 231.57 34.41 226.88 35.00 225.10 38.11 Z" /><path fill="#2b2847" opacity="1.00" d=" M 350.31 27.12 C 358.55 23.24 368.47 23.73 376.74 27.30 C 383.48 30.32 386.62 37.67 388.28 44.43 C 390.03 52.39 391.18 60.48 392.60 68.51 C 393.19 72.22 392.82 77.54 397.47 78.65 C 397.46 81.04 397.45 83.43 397.44 85.83 C 393.32 85.78 389.09 86.14 385.11 84.88 C 382.55 84.07 380.88 81.81 379.00 80.06 C 371.57 89.29 355.45 89.18 348.12 79.90 C 342.88 73.32 343.33 63.17 348.79 56.85 C 353.96 50.69 362.36 49.25 369.82 47.75 C 369.65 42.79 367.91 37.29 363.31 34.75 C 359.28 32.46 354.44 33.44 350.36 35.04 C 350.33 32.40 350.32 29.76 350.31 27.12 M 361.41 67.13 C 360.43 71.72 364.08 76.92 368.97 76.69 C 371.46 76.91 373.20 74.89 374.90 73.41 C 373.40 67.96 372.59 62.35 371.18 56.88 C 367.16 59.33 362.22 62.01 361.41 67.13 Z" /><path fill="#2b2847" opacity="1.00" d=" M 470.79 29.74 C 479.24 23.00 492.17 22.69 500.90 29.08 C 508.49 34.55 511.26 44.31 511.93 53.21 C 501.25 56.54 490.63 60.07 479.96 63.44 C 481.50 68.42 483.18 74.26 488.20 76.80 C 494.00 79.14 500.44 77.11 505.85 74.63 C 505.81 77.50 505.81 80.37 505.84 83.24 C 498.50 86.83 490.13 87.64 482.12 86.49 C 473.43 84.83 465.89 78.57 462.55 70.40 C 456.75 56.99 459.03 39.24 470.79 29.74 M 482.04 38.01 C 479.02 42.98 479.33 49.08 479.48 54.68 C 484.83 53.16 490.11 51.41 495.49 50.00 C 494.78 45.50 494.32 40.44 491.02 36.98 C 488.58 34.40 483.81 34.86 482.04 38.01 Z" /></g></svg>