<?xml version="1.0" encoding="UTF-8" ?><!DOCTYPE svg PUBLIC "-//W3C//DTD SVG 1.1//EN" "http://www.w3.org/Graphics/SVG/1.1/DTD/svg11.dtd"><svg width="512pt" height="205pt" viewBox="0 0 512 205" version="1.1" xmlns="http://www.w3.org/2000/svg"><g id="#2b2847ff"><path fill="#2b2847" opacity="1.00" d=" M 0.00 0.00 L 84.37 0.00 C 84.40 18.10 84.38 36.21 84.38 54.31 C 83.75 54.30 82.49 54.28 81.87 54.28 C 81.37 42.68 80.37 30.83 75.98 19.97 C 73.39 13.41 67.71 8.49 61.32 5.77 C 54.67 2.97 47.30 3.34 40.24 3.12 C 40.19 34.88 40.20 66.65 40.23 98.41 C 46.28 98.05 53.21 97.35 57.22 92.20 C 64.66 83.82 64.50 71.89 64.66 61.36 C 65.57 61.36 66.48 61.36 67.40 61.36 C 67.43 86.97 67.41 112.59 67.41 138.20 C 66.72 138.20 65.34 138.21 64.65 138.21 C 64.51 127.53 64.45 115.48 56.89 107.04 C 52.86 102.14 46.15 101.54 40.26 101.19 C 40.15 134.68 40.23 168.17 40.22 201.65 C 49.26 201.45 58.92 201.73 67.00 197.04 C 72.07 194.18 76.27 189.70 78.39 184.24 C 82.18 174.66 83.32 164.28 83.78 154.07 C 83.65 152.08 84.57 150.41 86.17 149.26 C 86.84 167.82 86.31 186.42 86.45 205.00 L 0.00 205.00 L 0.00 201.74 C 5.20 201.73 10.40 201.72 15.59 201.81 C 15.63 135.58 15.63 69.36 15.59 3.14 C 10.39 3.24 5.20 3.22 0.00 3.21 L 0.00 0.00 Z" /><path fill="#2b2847" opacity="1.00" d=" M 144.43 0.00 L 198.68 0.00 C 198.69 0.81 198.71 2.42 198.72 3.22 C 194.01 3.22 189.31 3.22 184.60 3.14 C 184.58 69.37 184.57 135.60 184.61 201.83 C 193.86 201.66 203.78 201.86 211.97 196.88 C 216.58 194.19 220.46 190.16 222.43 185.15 C 226.91 174.22 227.81 162.26 228.43 150.59 C 229.04 150.61 230.28 150.65 230.89 150.67 C 230.89 168.78 230.90 186.89 230.89 205.00 L 144.48 205.00 C 144.48 204.26 144.49 202.78 144.50 202.03 C 149.64 202.09 154.78 202.08 159.92 202.08 C 160.19 135.68 159.97 69.27 160.04 2.87 C 154.87 2.86 149.71 2.84 144.54 2.95 C 144.52 2.21 144.46 0.74 144.43 0.00 Z" /><path fill="#2b2847" opacity="1.00" d=" M 283.32 0.00 L 337.60 0.00 C 337.61 0.81 337.62 2.42 337.63 3.22 C 332.90 3.22 328.16 3.22 323.43 3.14 C 323.40 69.37 323.39 135.60 323.43 201.84 C 332.69 201.66 342.61 201.86 350.81 196.88 C 355.38 194.20 359.23 190.20 361.22 185.24 C 365.74 174.31 366.66 162.32 367.27 150.63 C 367.89 150.63 369.13 150.63 369.75 150.63 C 369.77 168.75 369.77 186.88 369.75 205.00 L 283.39 205.00 C 283.39 204.26 283.40 202.78 283.40 202.04 C 288.56 202.09 293.72 202.08 298.88 202.08 C 298.91 135.68 298.88 69.27 298.90 2.87 C 293.75 2.86 288.61 2.84 283.47 2.95 C 283.43 2.22 283.36 0.74 283.32 0.00 Z" /><path fill="#2b2847" opacity="1.00" d=" M 425.63 0.00 L 509.92 0.00 C 510.04 16.01 509.81 32.01 510.08 48.02 C 509.99 50.58 510.54 53.75 507.83 55.22 C 506.56 43.26 506.28 30.87 501.43 19.65 C 498.83 13.33 493.31 8.58 487.15 5.88 C 480.42 2.97 472.94 3.33 465.77 3.13 C 465.76 34.89 465.75 66.65 465.77 98.41 C 471.67 98.03 478.45 97.43 482.50 92.53 C 490.21 84.16 490.11 72.02 490.25 61.35 C 490.91 61.36 492.24 61.38 492.90 61.39 C 492.95 86.99 492.91 112.59 492.92 138.19 C 492.02 138.20 491.12 138.20 490.23 138.21 C 490.13 127.44 490.02 115.20 482.21 106.80 C 478.18 102.05 471.56 101.55 465.78 101.19 C 465.74 134.68 465.77 168.16 465.76 201.65 C 474.46 201.46 483.66 201.71 491.61 197.59 C 496.94 194.79 501.53 190.33 503.78 184.67 C 508.28 173.79 509.03 161.86 509.60 150.24 C 510.20 150.28 511.40 150.37 512.00 150.41 L 512.00 205.00 L 425.71 205.00 C 425.68 204.18 425.64 202.54 425.62 201.72 C 430.85 201.74 436.08 201.72 441.32 201.79 C 441.33 135.58 441.33 69.37 441.31 3.15 C 436.10 3.23 430.88 3.21 425.66 3.22 C 425.65 2.42 425.64 0.81 425.63 0.00 Z" /></g></svg>