<?xml version="1.0" encoding="UTF-8" ?><!DOCTYPE svg PUBLIC "-//W3C//DTD SVG 1.1//EN" "http://www.w3.org/Graphics/SVG/1.1/DTD/svg11.dtd"><svg width="512pt" height="184pt" viewBox="0 0 512 184" version="1.1" xmlns="http://www.w3.org/2000/svg"><g id="#2b2847ff"><path fill="#2b2847" opacity="1.00" d=" M 135.45 1.69 C 149.83 -1.22 165.56 0.21 178.33 7.81 C 189.25 14.13 197.32 24.91 200.84 36.98 C 205.07 51.44 203.44 67.69 195.73 80.72 C 188.33 93.62 174.70 102.44 160.09 104.73 C 145.07 107.19 128.67 104.88 116.16 95.77 C 103.13 86.58 95.41 70.84 95.14 55.00 C 94.53 41.39 99.04 27.43 108.30 17.32 C 115.33 9.32 125.09 3.96 135.45 1.69 M 142.40 28.58 C 136.03 30.26 130.66 35.01 127.91 40.95 C 123.11 50.79 124.75 63.65 132.49 71.54 C 140.54 79.99 155.16 80.58 163.94 72.93 C 175.13 63.61 175.70 44.75 165.57 34.45 C 159.70 28.40 150.43 26.24 142.40 28.58 Z" /><path fill="#2b2847" opacity="1.00" d=" M 0.00 3.18 C 14.00 2.97 28.00 3.14 42.00 3.08 C 54.92 3.01 68.07 7.49 77.55 16.40 C 98.36 35.10 98.05 71.62 77.10 90.10 C 67.64 98.75 54.69 102.92 41.99 102.90 C 27.99 102.91 14.00 102.99 0.00 102.85 L 0.00 3.18 M 29.84 28.54 C 29.88 44.82 29.93 61.10 29.82 77.38 C 33.89 77.54 37.99 77.72 42.06 77.34 C 50.63 76.39 58.18 70.06 60.88 61.91 C 65.10 50.82 60.66 36.68 49.92 31.09 C 43.79 27.63 36.58 28.48 29.84 28.54 Z" /><path fill="#2b2847" opacity="1.00" d=" M 205.19 3.11 C 215.34 3.08 225.49 3.07 235.65 3.11 C 246.34 22.44 256.72 41.95 267.60 61.17 C 267.63 41.76 267.57 22.35 267.62 2.94 C 277.60 3.28 287.60 2.98 297.58 3.10 C 297.54 36.35 297.52 69.61 297.60 102.86 C 287.44 102.99 277.28 102.91 267.13 102.90 C 256.34 84.15 245.86 65.21 234.88 46.58 C 235.05 65.33 234.71 84.10 235.07 102.85 C 225.12 102.99 215.16 102.91 205.21 102.90 C 205.25 69.63 205.28 36.37 205.19 3.11 Z" /><path fill="#2b2847" opacity="1.00" d=" M 304.61 3.08 C 314.71 3.16 324.82 2.97 334.91 3.14 C 345.97 22.37 356.22 42.12 367.15 61.45 C 367.02 42.00 367.19 22.56 367.06 3.12 C 377.07 3.08 387.09 3.05 397.11 3.13 C 397.09 36.38 397.11 69.62 397.10 102.86 C 387.04 102.93 376.97 103.01 366.91 102.84 C 366.70 102.63 366.27 102.20 366.05 101.98 C 355.46 83.59 345.18 65.00 334.43 46.71 C 334.45 65.45 334.44 84.19 334.44 102.92 C 324.51 102.92 314.57 102.92 304.63 102.93 C 304.59 69.64 304.64 36.36 304.61 3.08 Z" /><path fill="#2b2847" opacity="1.00" d=" M 436.01 3.09 C 446.51 3.09 457.01 3.04 467.51 3.14 C 479.90 36.38 492.44 69.57 504.96 102.77 C 493.82 103.09 482.67 102.88 471.53 102.88 C 470.44 99.08 469.32 95.29 468.19 91.50 C 457.21 91.41 446.23 91.50 435.25 91.46 C 434.02 95.23 432.97 99.05 431.84 102.85 C 421.04 103.01 410.24 102.87 399.44 102.93 C 411.49 69.60 423.95 36.42 436.01 3.09 M 441.47 69.48 C 448.33 69.58 455.19 69.55 462.06 69.50 C 458.54 57.64 455.00 45.79 451.88 33.83 C 448.22 45.65 445.14 57.66 441.47 69.48 Z" /><path fill="#2b2847" opacity="1.00" d=" M 102.25 115.16 C 117.86 102.18 143.34 102.87 157.95 117.10 C 171.45 130.60 172.81 154.04 161.19 169.14 C 154.68 177.99 144.02 182.98 133.24 184.00 L 125.10 184.00 C 113.73 183.10 102.43 177.59 95.99 167.97 C 84.77 152.08 87.20 127.80 102.25 115.16 M 122.40 127.58 C 111.43 131.81 108.25 146.98 114.75 156.24 C 119.82 164.28 131.90 166.03 139.31 160.27 C 147.68 153.97 148.85 140.66 142.31 132.64 C 137.77 126.75 129.21 124.85 122.40 127.58 Z" /><path fill="#2b2847" opacity="1.00" d=" M 0.00 107.89 C 9.39 107.86 18.78 107.90 28.17 107.86 C 33.55 123.53 38.37 139.38 43.72 155.06 C 48.78 139.29 53.89 123.55 59.22 107.87 C 68.32 107.92 77.43 107.80 86.54 107.94 C 86.51 132.65 86.54 157.36 86.53 182.06 C 79.30 182.13 72.08 182.07 64.86 182.10 C 64.96 167.23 64.57 152.35 65.19 137.48 C 60.47 152.25 56.46 167.24 52.01 182.09 C 46.46 182.07 40.91 182.23 35.37 181.90 C 30.95 166.98 26.05 152.20 21.70 137.26 C 21.47 152.21 21.70 167.16 21.61 182.10 C 14.40 182.08 7.20 182.10 0.00 182.09 L 0.00 107.89 Z" /><path fill="#2b2847" opacity="1.00" d=" M 171.57 107.87 C 182.39 108.01 193.21 107.63 204.02 108.08 C 213.82 108.40 223.68 112.25 230.46 119.47 C 242.02 131.52 243.50 151.47 234.52 165.42 C 229.38 173.73 220.47 179.39 210.93 181.18 C 205.04 182.42 198.99 182.06 193.01 182.09 C 185.86 182.10 178.71 182.08 171.56 182.10 C 171.54 157.36 171.52 132.61 171.57 107.87 M 193.66 126.83 C 193.67 138.92 193.64 151.02 193.68 163.11 C 199.21 163.20 205.31 163.63 210.01 160.14 C 219.34 153.80 220.13 138.73 211.71 131.29 C 206.98 126.56 199.87 126.64 193.66 126.83 Z" /><path fill="#2b2847" opacity="1.00" d=" M 242.71 107.87 C 258.60 107.89 274.49 107.88 290.38 107.87 C 290.42 113.51 290.42 119.15 290.39 124.80 C 281.89 124.74 273.40 124.77 264.91 124.77 C 264.91 128.94 264.91 133.10 264.91 137.27 C 273.40 137.26 281.90 137.29 290.40 137.25 C 290.42 142.59 290.39 147.94 290.42 153.28 C 281.91 153.28 273.41 153.26 264.90 153.29 C 264.91 157.25 264.91 161.22 264.91 165.19 C 273.41 165.23 281.90 165.20 290.39 165.20 C 290.42 170.83 290.42 176.47 290.39 182.10 C 274.50 182.09 258.60 182.08 242.71 182.11 C 242.71 157.36 242.70 132.62 242.71 107.87 Z" /><path fill="#2b2847" opacity="1.00" d=" M 295.84 107.88 C 307.91 107.96 319.99 107.73 332.05 107.99 C 341.50 108.06 351.01 113.04 355.54 121.49 C 362.84 134.12 358.74 152.14 345.90 159.53 C 350.70 167.11 355.79 174.50 360.56 182.11 C 351.80 181.86 342.94 182.53 334.24 181.79 C 329.87 175.75 326.03 169.32 321.78 163.19 C 320.53 163.20 319.28 163.22 318.03 163.24 C 318.04 169.53 318.22 175.82 317.93 182.11 C 310.56 182.08 303.20 182.09 295.84 182.10 C 295.84 157.36 295.83 132.62 295.84 107.88 M 318.08 125.47 C 318.05 132.24 318.11 139.01 318.04 145.77 C 321.89 145.76 325.79 146.15 329.60 145.50 C 336.66 143.48 338.78 133.36 333.66 128.33 C 329.67 123.96 323.27 125.81 318.08 125.47 Z" /><path fill="#2b2847" opacity="1.00" d=" M 362.76 107.87 C 370.25 107.86 377.75 107.93 385.24 107.83 C 393.40 122.21 401.09 136.85 409.20 151.26 C 409.06 136.80 409.14 122.34 409.15 107.87 C 416.53 107.88 423.92 107.89 431.30 107.87 C 431.30 132.61 431.29 157.36 431.31 182.11 C 423.82 182.10 416.33 182.05 408.84 182.14 C 400.63 168.35 393.11 154.15 384.83 140.41 C 385.45 154.23 384.92 168.07 385.14 181.90 C 377.69 182.33 370.22 181.98 362.76 182.11 C 362.77 157.36 362.76 132.62 362.76 107.87 Z" /><path fill="#2b2847" opacity="1.00" d=" M 433.40 182.11 C 442.54 157.37 451.53 132.58 460.75 107.87 C 468.47 107.94 476.20 107.75 483.93 107.99 C 491.50 128.39 499.24 148.73 506.88 169.11 C 508.57 173.27 509.72 177.66 512.00 181.56 L 512.00 182.09 C 503.64 182.03 495.28 182.13 486.92 182.10 C 486.07 179.24 485.21 176.38 484.36 173.52 C 476.25 173.54 468.15 173.50 460.05 173.55 C 459.22 176.37 458.41 179.19 457.61 182.02 C 449.54 182.18 441.47 182.04 433.40 182.11 M 464.67 157.31 C 469.72 157.25 474.77 157.27 479.82 157.29 C 477.09 148.61 474.94 139.75 472.16 131.08 C 469.84 139.87 467.30 148.60 464.67 157.31 Z" /></g></svg>